<?xml version="1.0" encoding="UTF-8"?>
<svg width="92px" height="42px" viewBox="0 0 92 42" version="1.1" xmlns="http://www.w3.org/2000/svg" xmlns:xlink="http://www.w3.org/1999/xlink" style="background: #FFFFFF;">
    <!-- Generator: Sketch 42 (36781) - http://www.bohemiancoding.com/sketch -->
    <title>Group 64</title>
    <desc>Created with Sketch.</desc>
    <defs>
        <polygon id="path-1" points="0.386 38.429 0.386 0.162 38.653 0.162 38.653 38.429"></polygon>
        <polygon id="path-3" points="0 83.6378 0 0.276 223.417 0.276 223.417 83.6378 223.417 166.9996 0 166.9996 0 83.6378"></polygon>
        <polygon id="path-5" points="0 83.6378 0 0.276 223.417 0.276 223.417 83.6378 223.417 166.9996 0 166.9996 0 83.6378"></polygon>
    </defs>
    <g id="Page-1" stroke="none" stroke-width="1" fill="none" fill-rule="evenodd">
        <g id="etiketten_back" transform="translate(-69.000000, -70.000000)">
            <g id="Group-20" transform="translate(71.000000, 71.724000)">
                <g id="Group-3">
                    <mask id="mask-2" fill="white">
                        <use xlink:href="#path-1"></use>
                    </mask>
                    <g id="Clip-2"></g>
                    <path d="M0.9596,0.1613 L38.0796,0.1613 C38.3966,0.1613 38.6536,0.4183 38.6536,0.7353 L38.6536,37.8553 C38.6536,38.1723 38.3966,38.4293 38.0796,38.4293 L0.9596,38.4293 C0.6426,38.4293 0.3856,38.1723 0.3856,37.8553 L0.3856,0.7353 C0.3856,0.4183 0.6426,0.1613 0.9596,0.1613" id="Fill-1" fill="#007850" mask="url(#mask-2)"></path>
                </g>
                <path d="M19.5989,27.1874 C19.6139,28.1774 19.6009,34.4794 19.6009,34.4794 C19.6879,34.7404 19.9569,35.0884 19.7149,35.3094 C19.6549,35.3654 19.6149,35.4064 19.5349,35.4154 C18.8989,35.4914 18.4479,35.5064 17.7249,35.4034 C17.5869,35.3844 17.4729,35.2474 17.4359,35.1354 C17.3579,34.6864 17.6809,34.6474 17.6929,34.3504 C17.6929,34.3504 17.7019,30.9504 17.7019,28.7114 C17.7019,28.3224 17.1019,28.1624 17.3819,27.7274 C17.6559,27.3014 18.1919,27.1404 18.6039,27.0004 C18.8199,26.9264 19.5939,26.8374 19.5989,27.1874" id="Fill-4" fill="#FFFFFF"></path>
                <path d="M29.7319,30.1596 C30.3169,30.8256 30.2419,31.6276 30.3109,32.4166 C30.3459,33.0706 30.3259,33.5316 30.3999,34.3896 C30.4449,34.6766 30.9139,34.9696 30.6079,35.3056 C30.4269,35.5036 30.0029,35.4446 29.6909,35.4446 C29.1929,35.4446 28.3599,35.5776 28.2909,35.1646 C28.2289,34.7916 28.6719,34.6636 28.6219,34.3146 C28.5719,33.2886 28.7289,32.2146 28.4239,31.2566 C28.3249,30.9996 28.1089,30.9666 27.9479,30.9606 C27.8259,30.9566 27.6729,31.0816 27.6689,31.1836 C27.6379,31.9306 27.6639,34.4456 27.6639,34.4456 C27.7569,34.7066 28.1359,34.8996 27.9309,35.2226 C27.8039,35.4236 27.5709,35.4096 27.3649,35.4466 L25.9029,35.4346 C25.7729,35.4096 25.6539,35.3096 25.5919,35.1916 C25.4499,34.6346 25.8889,34.7376 25.8959,34.1386 C25.9109,33.0046 25.9119,32.2416 25.8799,31.2466 C25.8719,30.9646 25.3999,30.9246 25.4239,30.6816 C25.4309,30.5136 25.5669,30.3586 25.7229,30.2966 C26.1979,30.1066 26.6439,29.8426 27.1289,29.6876 C27.3199,29.6256 27.4769,29.7556 27.5579,29.9106 C27.5669,29.9276 27.5829,29.9356 27.5889,29.9546 C27.7159,30.3356 28.3119,29.6016 28.7399,29.6686 C29.2099,29.7406 29.4039,29.7856 29.7319,30.1596" id="Fill-6" fill="#FFFFFF"></path>
                <path d="M22.8736,32.4431 C22.8986,32.9341 22.8546,33.4341 22.8476,33.9371 C22.8456,34.0681 22.6726,34.2281 22.5336,34.2651 C22.4016,34.2961 22.2456,34.2961 22.1516,34.1901 C21.9106,33.9171 21.9216,33.5741 22.0326,33.2201 C22.1536,32.9031 22.5566,32.5671 22.8736,32.4431 M24.2336,30.1161 C24.4646,30.4001 24.5736,30.7701 24.5476,31.1681 L24.5856,34.1391 C24.6126,34.2321 24.7146,34.3211 24.8126,34.3401 C24.9306,34.3581 25.0226,34.2841 25.1216,34.3091 C25.3666,34.3711 25.0356,34.8481 24.8806,35.0711 C24.6446,35.4161 24.2176,35.5401 23.8596,35.4911 C23.5466,35.4471 23.3326,35.2491 23.0936,35.0561 C22.8126,34.8301 22.4306,35.3931 22.0626,35.4601 C21.4886,35.5661 20.9216,35.4101 20.5746,34.9991 C20.1206,34.3831 20.0826,33.5661 20.4886,32.8951 C20.9736,32.0941 21.7916,32.0561 22.5776,31.6171 C22.8666,31.4561 22.8756,31.1691 22.8736,30.8971 C22.8726,30.7831 22.8026,30.6111 22.6926,30.5621 C22.5756,30.5081 22.3916,30.5061 22.3056,30.6001 C22.1786,30.7411 22.2986,30.9221 22.2646,31.0961 C22.2126,31.3681 21.9616,31.5451 21.7076,31.6441 C21.4506,31.7461 21.0466,31.7711 20.8266,31.5721 C20.5486,31.3221 20.5236,30.9181 20.6286,30.5641 C20.8016,29.9811 21.4016,29.7001 21.9366,29.5821 C22.7836,29.4331 23.6826,29.4381 24.2336,30.1161" id="Fill-8" fill="#FFFFFF"></path>
                <path d="M16.5156,30.7878 C17.1766,31.9228 17.1316,33.5438 16.3666,34.6378 C15.9616,35.2168 15.3396,35.5898 14.6496,35.5648 C13.9346,35.5388 13.2806,34.9868 12.9326,34.3588 C12.3206,33.2538 12.3296,31.6338 13.0696,30.5828 C13.5266,29.9328 14.2326,29.4818 15.0546,29.6368 C15.6896,29.7578 16.1866,30.2218 16.5156,30.7878 M15.0416,31.8648 C15.3886,32.4518 15.6656,33.3298 15.6656,33.7648 C15.6656,33.9518 15.6506,34.1698 15.3546,34.2008 C15.0456,34.2328 14.7016,33.8428 14.5456,33.5638 C14.2856,33.0958 13.6906,32.0398 13.8986,31.2078 C13.9666,30.9328 14.2386,30.9448 14.3506,31.0128 C14.6656,31.2048 14.8616,31.5598 15.0416,31.8648" id="Fill-10" fill="#FFFFFF"></path>
                <path d="M6.4462,28.587 C6.5832,28.937 6.5702,29.43 6.4152,29.753 C6.3002,29.992 6.0152,30.102 5.7852,30.025 C5.6452,29.979 5.6282,29.909 5.6222,29.816 L5.6172,28.14 C5.6172,28.06 5.6302,28.006 5.7922,28.006 C6.1282,28.006 6.3032,28.221 6.4462,28.587 M6.7272,31.895 C7.0392,32.544 7.1492,33.598 6.5702,34.17 C6.3942,34.344 6.0492,34.372 5.8052,34.314 C5.6182,34.27 5.6572,34.18 5.6432,33.763 C5.6122,32.773 5.6702,31.355 5.6702,31.355 C5.6972,31.234 5.6972,31.194 5.8432,31.18 C6.2722,31.139 6.5652,31.559 6.7272,31.895 M7.8782,27.609 C8.3812,28.125 8.6922,28.853 8.4872,29.562 C8.3812,29.917 8.1332,30.24 7.8162,30.477 C8.7772,31.089 9.3892,32.212 9.2212,33.282 C9.0912,34.19 8.4412,34.98 7.4412,35.305 C7.1492,35.4 6.6652,35.434 6.6652,35.434 L3.6472,35.434 C3.4862,35.403 3.3122,35.328 3.2312,35.161 C3.0862,34.86 3.5362,34.692 3.5382,34.356 C3.5462,32.887 3.5482,30.508 3.5482,30.508 C3.5482,30.508 3.5302,29.022 3.5382,27.903 C3.5402,27.577 3.0512,27.454 3.2192,27.13 C3.3122,26.949 3.4922,26.844 3.6792,26.819 C5.0952,26.63 6.8022,26.471 7.8782,27.609" id="Fill-12" fill="#FFFFFF"></path>
                <path d="M9.9361,28.8544 C9.6941,28.4814 9.9031,27.9164 10.4021,27.5914 C10.9031,27.2664 11.5041,27.3064 11.7461,27.6794 C11.9881,28.0514 11.7791,28.6174 11.2791,28.9414 C10.7801,29.2664 10.1781,29.2274 9.9361,28.8544" id="Fill-14" fill="#FFFFFF"></path>
                <path d="M11.8437,30.1971 L11.8527,34.5411 C11.9277,34.8151 12.2797,35.0101 12.0147,35.3931 C11.8967,35.5631 11.6957,35.5051 11.4837,35.5231 C10.9387,35.5691 10.6907,35.5541 10.0377,35.5071 C9.8837,35.4961 9.7747,35.3931 9.7317,35.2561 C9.6477,34.9911 9.9177,34.8151 9.9677,34.5721 L9.9677,31.4061 C9.9617,31.0951 9.4887,30.9451 9.6567,30.5841 C9.9197,30.0241 10.7757,29.8621 11.1427,29.8221 C11.3477,29.7991 11.7947,29.8621 11.8437,30.1971" id="Fill-16" fill="#FFFFFF"></path>
                <path d="M33.6801,31.0102 C33.9591,31.9372 33.9291,32.9672 33.7811,33.9042 C33.7481,34.1072 33.6861,34.2452 33.5251,34.3072 C33.3421,34.3762 33.2041,34.2942 33.0951,33.9982 C32.9691,33.6572 32.9551,33.3772 32.9281,32.9342 C32.9081,32.5952 32.8691,31.5102 33.2121,30.9432 C33.3261,30.7532 33.5851,30.6932 33.6801,31.0102 M35.5901,27.0242 C35.7951,27.2522 35.6831,27.6782 35.6961,28.0142 L35.7391,34.0912 C35.8391,34.3022 36.1321,34.4582 36.0381,34.7312 C35.9861,34.8852 35.8201,34.9862 35.6831,35.0422 C35.2351,35.2262 34.8131,35.4592 34.3211,35.5342 C34.1411,35.5462 34.0041,35.3542 33.9051,35.2232 C33.8581,35.1612 33.7641,35.2892 33.7641,35.2892 C33.7641,35.2892 33.7021,35.3592 33.5381,35.4522 C33.0331,35.7412 32.5301,35.6712 32.0821,35.3722 C30.9891,34.6442 31.0061,33.2752 31.2051,32.1192 C31.3791,31.2042 31.8271,30.0662 32.8601,29.7302 C33.1781,29.6272 33.5001,29.6742 33.7871,29.8602 C33.8311,29.8902 33.8601,29.8372 33.8721,29.8002 C33.8721,29.8002 33.9191,28.9762 33.8741,28.4922 C33.8451,28.1872 33.4131,28.0762 33.5941,27.7592 C33.5941,27.7592 33.7051,27.6232 33.7991,27.5652 C34.2541,27.2882 34.6111,27.1172 35.2171,26.9252 C35.3721,26.8762 35.4841,26.9062 35.5901,27.0242" id="Fill-18" fill="#FFFFFF"></path>
            </g>
            <polygon id="Fill-21" fill="#88BB40" points="113.622 102.11 158.734 102.11 158.734 71.885 113.622 71.885"></polygon>
            <g id="Group-58" transform="translate(38.000000, 38.724000)">
                <path d="M92.0449,40.2346 C93.3379,40.3156 94.6129,40.4666 95.7189,40.9216 C94.6829,41.3086 93.8959,41.7666 92.9959,42.1886 L93.7069,39.2386 C94.2709,40.3646 94.8669,41.5606 95.1809,42.6856 C94.1559,41.6876 93.1079,40.9476 92.0449,40.2346" id="Fill-22" fill="#FFFFFF"></path>
                <path d="M97.7192,39.9351 L100.6352,40.9931 L98.3532,42.0651 C98.5742,41.1021 98.8202,40.1261 99.1352,39.1161 C99.4662,40.3611 99.8072,41.6461 100.0442,42.8441 C99.3052,41.7971 98.5012,40.8961 97.7192,39.9351" id="Fill-24" fill="#FFFFFF"></path>
                <path d="M103.4991,40.9747 C104.3581,41.1207 105.2631,41.0827 106.1681,40.9747 C105.4271,41.6397 104.6741,42.2927 103.8861,42.9117 C104.2351,41.9227 104.5601,40.9097 104.8621,39.8737 C105.0711,40.8927 105.2801,41.9127 105.4891,42.9327 C104.8671,42.4017 104.1741,41.7487 103.4991,40.9747" id="Fill-26" fill="#FFFFFF"></path>
                <path d="M109.3495,40.8866 C110.0625,40.6756 110.9875,40.1396 111.7895,39.7586 C111.1225,40.6286 110.4565,41.4486 109.7895,42.2236 C110.0125,41.3306 110.3325,40.4016 110.6245,39.4326 C110.8475,40.1036 111.0165,40.7226 111.3225,41.3286 C110.6645,41.2916 110.0075,41.1576 109.3495,40.8866" id="Fill-28" fill="#FFFFFF"></path>
                <path d="M106.8472,45.8912 C108.0532,45.6772 108.8632,45.3122 109.8342,44.9752 C108.9852,45.8442 107.9872,47.0232 107.2872,47.5812 L108.3682,44.4202 C108.6112,45.3002 108.9012,46.1332 109.1902,46.9682 C108.3772,46.7722 107.6132,46.3682 106.8472,45.8912" id="Fill-30" fill="#FFFFFF"></path>
                <path d="M103.9043,49.856 C104.9973,50.124 105.9683,50.316 107.1203,50.226 C106.4003,50.919 105.5133,51.359 104.6093,51.775 C104.9093,50.889 105.2063,49.997 105.4613,49.019 C105.8403,50.015 106.1623,51.188 106.5993,51.955 C105.5213,51.315 104.7063,50.588 103.9043,49.856" id="Fill-32" fill="#FFFFFF"></path>
                <path d="M100.7501,52.4288 C101.7631,52.8588 102.7231,53.3028 103.7891,53.5038 C103.0151,53.8418 102.2391,54.1788 101.4191,54.4708 C101.6491,53.6058 101.8541,52.7928 102.1301,51.9268 C102.4691,53.0068 102.8431,54.0758 103.3221,55.1088 C102.4081,54.4128 101.5291,53.3998 100.7501,52.4288" id="Fill-34" fill="#FFFFFF"></path>
                <path d="M96.609,54.0147 C97.646,54.3147 98.682,54.7627 99.719,55.2487 C98.854,55.6097 98.008,56.0307 97.19,56.5327 C97.538,55.4597 97.918,54.3647 98.148,53.3187 C98.469,54.5617 98.891,55.8637 99.198,57.1357 C98.573,56.3887 97.47,54.9727 96.609,54.0147" id="Fill-36" fill="#FFFFFF"></path>
                <path d="M90.4237,54.843 C91.6137,54.632 92.7777,54.579 93.9207,54.649 C92.8197,55.633 91.9267,56.479 90.9517,57.379 C91.4067,55.955 91.8607,54.531 92.3157,53.107 C92.5997,54.452 92.8457,55.875 93.0837,57.312 C92.3927,56.54 91.3667,55.61 90.4237,54.843" id="Fill-38" fill="#FFFFFF"></path>
                <path d="M88.2562,44.1114 C89.5962,43.7074 90.9002,43.6854 92.1942,43.7944 L89.2432,45.7304 C89.5622,44.7124 89.8722,43.6934 90.2362,42.6754 C90.7912,43.6694 91.2942,44.6634 91.7092,45.6114 C90.7812,44.9414 89.5082,44.5034 88.2562,44.1114" id="Fill-40" fill="#FFFFFF"></path>
                <path d="M85.6659,49.8384 C86.9729,49.1734 88.2969,48.6684 89.6039,48.6584 L86.4409,51.7394 L87.7159,47.5564 C88.1929,48.6564 88.6619,49.8674 88.9069,50.9684 C87.9039,50.4914 86.8549,50.0834 85.6659,49.8384" id="Fill-42" fill="#FFFFFF"></path>
                <path d="M83.375,56.9576 C84.104,56.6936 85.397,55.6876 86.169,55.4666 C88.333,51.7546 97.021,46.6246 101.063,46.2136 C101.177,46.2016 101.164,46.2826 101.068,46.3106 C96.829,47.5466 89.711,51.4246 87.049,55.6366 C86.025,57.2556 85.623,57.4856 84.291,59.0176 C84.714,57.3926 85.146,55.7646 85.707,54.0946 C86.222,55.3646 86.591,56.6836 86.969,57.9996 C85.917,57.4316 84.662,57.1026 83.375,56.9576" id="Fill-44" fill="#FFFFFF"></path>
                <path d="M75.622,71.3646 L76.952,71.3646 C78.789,71.3646 79.917,70.2846 79.917,68.6246 C79.917,66.9646 78.781,65.8846 76.952,65.8846 L75.622,65.8846 L75.622,71.3646 Z M76.202,70.8406 L76.202,66.4086 L76.911,66.4086 C78.531,66.4086 79.305,67.3196 79.305,68.6246 C79.305,69.9306 78.531,70.8406 76.911,70.8406 L76.202,70.8406 Z M81.102,71.3646 L84.551,71.3646 L84.551,70.8486 L81.682,70.8486 L81.682,69.4786 L84.14,69.4786 L84.14,68.9716 L81.682,68.9716 L81.682,66.4006 L84.438,66.4006 L84.438,65.8846 L81.102,65.8846 L81.102,71.3646 Z M85.357,69.7526 L86.912,69.7526 L86.912,69.2446 L85.357,69.2446 L85.357,69.7526 Z M91.239,65.1516 C91.433,65.1516 91.61,64.9826 91.61,64.7806 C91.61,64.5716 91.433,64.4096 91.239,64.4096 C91.046,64.4096 90.861,64.5716 90.861,64.7806 C90.861,64.9826 91.046,65.1516 91.239,65.1516 L91.239,65.1516 Z M89.837,65.1516 C90.039,65.1516 90.216,64.9826 90.216,64.7806 C90.216,64.5716 90.039,64.4096 89.837,64.4096 C89.644,64.4096 89.467,64.5716 89.467,64.7806 C89.467,64.9826 89.644,65.1516 89.837,65.1516 L89.837,65.1516 Z M90.538,71.4286 C92.102,71.4286 93.359,70.2766 93.359,68.6246 C93.359,66.9726 92.102,65.8206 90.538,65.8206 C88.983,65.8206 87.726,66.9726 87.726,68.6246 C87.726,70.2766 88.983,71.4286 90.538,71.4286 L90.538,71.4286 Z M90.538,70.9056 C89.265,70.9056 88.33,69.9306 88.33,68.6246 C88.33,67.3196 89.265,66.3436 90.538,66.3436 C91.82,66.3436 92.754,67.3196 92.754,68.6246 C92.754,69.9306 91.82,70.9056 90.538,70.9056 L90.538,70.9056 Z M95.075,69.2286 C95.091,69.0516 95.124,68.7376 95.124,68.4796 L95.124,65.8846 L94.543,65.8846 L94.543,71.3646 L95.124,71.3646 L95.124,69.7526 L95.784,68.9546 L97.694,71.3646 L98.412,71.3646 L96.163,68.5276 L98.194,65.8846 L97.541,65.8846 L95.47,68.5526 C95.365,68.6896 95.196,68.9956 95.075,69.2286 L95.075,69.2286 Z M101.53,71.4286 C103.094,71.4286 104.351,70.2766 104.351,68.6246 C104.351,66.9726 103.094,65.8206 101.53,65.8206 C99.975,65.8206 98.718,66.9726 98.718,68.6246 C98.718,70.2766 99.975,71.4286 101.53,71.4286 L101.53,71.4286 Z M101.53,70.9056 C100.257,70.9056 99.322,69.9306 99.322,68.6246 C99.322,67.3196 100.257,66.3436 101.53,66.3436 C102.812,66.3436 103.746,67.3196 103.746,68.6246 C103.746,69.9306 102.812,70.9056 101.53,70.9056 L101.53,70.9056 Z M105.157,69.7526 L106.712,69.7526 L106.712,69.2446 L105.157,69.2446 L105.157,69.7526 Z M109.589,71.4286 C110.733,71.4286 111.724,70.5346 111.724,69.3336 C111.724,68.1086 110.733,67.2386 109.589,67.2386 C108.452,67.2386 107.461,68.1086 107.461,69.3336 C107.461,70.5346 108.452,71.4286 109.589,71.4286 L109.589,71.4286 Z M109.589,70.9216 C108.726,70.9216 108.058,70.2526 108.058,69.3336 C108.058,68.3906 108.726,67.7466 109.589,67.7466 C110.451,67.7466 111.136,68.3906 111.136,69.3336 C111.136,70.2526 110.451,70.9216 109.589,70.9216 L109.589,70.9216 Z M114.512,71.4286 C115.657,71.4286 116.648,70.5346 116.648,69.3336 C116.648,68.1086 115.657,67.2386 114.512,67.2386 C113.376,67.2386 112.385,68.1086 112.385,69.3336 C112.385,70.5346 113.376,71.4286 114.512,71.4286 L114.512,71.4286 Z M114.512,70.9216 C113.65,70.9216 112.981,70.2526 112.981,69.3336 C112.981,68.3906 113.65,67.7466 114.512,67.7466 C115.375,67.7466 116.06,68.3906 116.06,69.3336 C116.06,70.2526 115.375,70.9216 114.512,70.9216 L114.512,70.9216 Z M119.033,71.4286 C120.008,71.4286 120.734,70.7436 120.734,69.8016 C120.734,68.8666 120.057,68.2136 119.162,68.2136 C118.84,68.2136 118.566,68.3346 118.356,68.5036 C118.356,68.5036 118.614,68.2536 118.743,68.0846 L119.847,66.4486 L119.211,66.4486 L117.841,68.4716 C117.534,68.9226 117.317,69.3336 117.317,69.8096 C117.317,70.7686 118.066,71.4286 119.033,71.4286 L119.033,71.4286 Z M119.025,70.9296 C118.324,70.9296 117.889,70.4456 117.889,69.8016 C117.889,69.1886 118.332,68.6726 119.025,68.6726 C119.734,68.6726 120.161,69.1326 120.161,69.8016 C120.161,70.4456 119.694,70.9296 119.025,70.9296 L119.025,70.9296 Z" id="Fill-46" fill="#1A1918"></path>
            </g>
            <g id="Group-65" transform="translate(0.000000, 0.724000)">
                <g id="Group-61">
                    <mask id="mask-4" fill="white">
                        <use xlink:href="#path-3"></use>
                    </mask>
                    <g id="Clip-60"></g>
                    <path d="M18,21.2756 L0,21.2756 M205.417,21.2756 L223.417,21.2756 M18,145.9996 L0,145.9996 M205.417,145.9996 L223.417,145.9996 M21,18.2756 L21,0.2756 M21,148.9996 L21,166.9996 M202.417,18.2756 L202.417,0.2756 M202.417,148.9996 L202.417,166.9996" id="Stroke-59" stroke="#FFFFFF" stroke-width="1.25" mask="url(#mask-4)"></path>
                </g>
                <g id="Group-64">
                    <mask id="mask-6" fill="white">
                        <use xlink:href="#path-5"></use>
                    </mask>
                    <g id="Clip-63"></g>
                    <path d="M18,21.2756 L0,21.2756 M205.417,21.2756 L223.417,21.2756 M18,145.9996 L0,145.9996 M205.417,145.9996 L223.417,145.9996 M21,18.2756 L21,0.2756 M21,148.9996 L21,166.9996 M202.417,18.2756 L202.417,0.2756 M202.417,148.9996 L202.417,166.9996" id="Stroke-62" stroke="#000000" stroke-width="0.25" mask="url(#mask-6)"></path>
                </g>
            </g>
        </g>
        <g id="Group-64-Copy" transform="translate(0.000000, -1.000000)"></g>
    </g>
</svg>