<?xml version="1.0" encoding="UTF-8"?>
<svg width="282px" height="282px" viewBox="0 0 282 282" version="1.1" xmlns="http://www.w3.org/2000/svg" xmlns:xlink="http://www.w3.org/1999/xlink">
    <!-- Generator: Sketch 42 (36781) - http://www.bohemiancoding.com/sketch -->
    <title>gojigarten-logo</title>
    <desc>Created with Sketch.</desc>
    <defs></defs>
    <g id="Page-1" stroke="none" stroke-width="1" fill="none" fill-rule="evenodd">
        <g id="gojigarten-logo" fill-rule="nonzero">
            <g id="Page-1">
                <g id="logo_gojigarten">
                    <g id="Group-3" fill="#7BBC42">
                        <g id="Fill-1-Clipped">
                            <path d="M281.95,141.025 C281.95,218.883 218.833,282 140.975,282 C63.117,282 0,218.883 0,141.025 C0,63.167 63.117,0.05 140.975,0.05 C218.833,0.05 281.95,63.167 281.95,141.025" id="Fill-1"></path>
                        </g>
                    </g>
                    <path d="M84.769,195.195 L91.357,195.195 L91.357,199.053 C89.94,199.973 87.858,200.497 85.609,200.497 C80.402,200.497 76.766,196.861 76.766,191.653 C76.766,186.549 80.289,182.845 85.142,182.845 C87.699,182.845 89.519,183.56 91.043,185.164 L91.255,185.386 L94.23,182.413 L94.043,182.201 C92.054,179.959 89.06,178.823 85.142,178.823 C77.686,178.823 72.275,184.219 72.275,191.653 C72.275,199.108 77.883,204.519 85.609,204.519 C90.187,204.519 93.643,202.861 95.353,201.309 L95.451,201.22 L95.451,191.245 L84.769,191.245 L84.769,195.195" id="Fill-4" fill="#FFFFFF"></path>
                    <path d="M114.178,196.934 L106.532,196.934 L109.425,189.719 C109.779,188.885 110.117,187.819 110.344,187.049 C110.581,187.818 110.929,188.884 111.282,189.712 L114.178,196.934 L114.178,196.934 Z M109.994,178.859 L99.439,203.778 L99.263,204.195 L103.589,204.195 L104.993,200.739 L115.787,200.739 L117.191,204.195 L121.813,204.195 L110.822,178.859 L109.994,178.859 L109.994,178.859 Z" id="Fill-5" fill="#FFFFFF"></path>
                    <path d="M139.186,188.558 C139.186,192.283 137.12,194.018 132.682,194.018 L130.821,194.018 L130.821,183.06 L132.682,183.06 C137.059,183.06 139.186,184.859 139.186,188.558 L139.186,188.558 Z M143.674,188.558 C143.674,182.643 139.619,179.112 132.825,179.112 L126.404,179.112 L126.404,204.195 L130.821,204.195 L130.821,197.893 L132.825,197.893 C133.477,197.893 134.135,197.83 134.731,197.768 L139.112,204.195 L144.232,204.195 L138.927,196.458 C142.078,194.953 143.674,192.297 143.674,188.558 L143.674,188.558 Z" id="Fill-6" fill="#FFFFFF"></path>
                    <polyline id="Fill-7" fill="#FFFFFF" points="147.269 183.06 154.541 183.06 154.541 204.195 158.922 204.195 158.922 183.06 166.197 183.06 166.197 179.112 147.269 179.112 147.269 183.06"></polyline>
                    <polyline id="Fill-8" fill="#FFFFFF" points="175.399 195.843 185.806 195.843 185.806 191.966 175.399 191.966 175.399 183.06 187.138 183.06 187.138 179.112 170.983 179.112 170.983 204.195 187.641 204.195 187.641 200.246 175.399 200.246 175.399 195.843"></polyline>
                    <path d="M209.423,179.112 L209.423,192.877 C209.423,193.652 209.5,194.661 209.571,195.407 C209.1,194.82 208.454,194.035 207.925,193.466 L194.334,178.859 L193.4,178.859 L193.4,204.195 L197.529,204.195 L197.529,190.394 C197.529,189.553 197.454,188.572 197.386,187.852 C197.862,188.436 198.52,189.223 199.061,189.805 L212.651,204.447 L213.55,204.447 L213.55,179.112 L209.423,179.112" id="Fill-9" fill="#FFFFFF"></path>
                    <polyline id="Fill-10" fill="#FFFFFF" points="117.993 149.475 163.119 149.475 163.119 158.86 117.994 158.86 117.993 149.475"></polyline>
                    <path d="M42.98,128.424 C42.98,107.79 58.788,92.596 78.807,92.596 C91.742,92.596 99.545,97.216 105.293,103.683 L97.696,110.869 C93.487,106.25 88.663,102.554 78.499,102.554 C64.333,102.554 54.374,113.641 54.374,128.424 C54.374,143.206 64.435,154.294 80.347,154.294 C87.945,154.294 93.282,152.548 97.285,149.88 L97.285,141.974 L78.602,141.974 L78.602,132.222 L107.449,132.222 L107.449,155.114 C101.597,159.94 93.487,164.251 80.347,164.251 C58.892,164.251 42.98,149.058 42.98,128.424" id="Fill-11" fill="#FFFFFF"></path>
                    <path d="M175.008,152.852 C176.51,153.772 178.337,154.294 180.702,154.294 C186.04,154.294 189.838,151.83 189.838,143.515 L189.838,93.52 L200.925,93.52 L200.925,143.719 C200.925,157.579 192.61,164.251 181.111,164.251 C176.074,164.251 172.041,163.062 168.832,161.116" id="Fill-12" fill="#FFFFFF"></path>
                    <polygon id="Fill-13" fill="#FFFFFF" points="219.684 93.52 230.668 93.52 230.668 163.327 219.684 163.327"></polygon>
                    <path d="M140.46,104.85 C132.812,104.85 127.261,110.715 127.261,118.794 C127.261,126.874 132.812,132.738 140.46,132.738 C148.108,132.738 153.659,126.874 153.659,118.794 C153.659,110.715 148.108,104.85 140.46,104.85 L140.46,104.85 Z M140.46,142.118 C127.311,142.118 117.012,131.873 117.012,118.794 C117.012,105.716 127.311,95.47 140.46,95.47 C153.609,95.47 163.909,105.716 163.909,118.794 C163.909,131.873 153.609,142.118 140.46,142.118 L140.46,142.118 Z" id="Fill-14" fill="#FFFFFF"></path>
                </g>
            </g>
        </g>
    </g>
</svg>