<?xml version="1.0" encoding="UTF-8"?>
<svg width="575px" height="410px" viewBox="0 0 575 410" version="1.1" xmlns="http://www.w3.org/2000/svg" xmlns:xlink="http://www.w3.org/1999/xlink">
    <!-- Generator: Sketch 42 (36781) - http://www.bohemiancoding.com/sketch -->
    <title>Slice</title>
    <desc>Created with Sketch.</desc>
    <defs>
        <polygon id="path-1" points="0.487712732 26 17.785317 26 17.785317 0.1354 0.487712732 0.1354"></polygon>
    </defs>
    <g id="Page-1" stroke="none" stroke-width="1" fill="none" fill-rule="evenodd">
        <g transform="translate(-322.000000, -321.000000)">
            <g id="Group-104" transform="translate(74.000000, 78.471000)">
                <path d="M655.3781,550.2213 C652.5371,553.7423 651.6181,557.5253 651.3651,558.8683 C651.4331,558.8963 651.5041,558.9373 651.5631,558.9933 C651.6561,559.0853 651.9391,559.3523 652.3321,560.9483 C652.4771,561.5253 652.5951,562.2153 652.7031,562.8253 C652.7661,563.1903 652.8301,563.5403 652.8881,563.8153 C652.9201,563.7823 652.9541,563.7523 652.9851,563.7233 C653.1951,563.5243 653.4581,563.2743 653.7771,563.0483 C654.5451,562.4993 655.2571,562.5273 655.8851,563.1243 C656.0611,563.2933 656.2371,563.5093 656.4241,563.7913 C656.9931,564.6503 657.0201,565.5123 657.0281,566.2793 C657.1131,566.2263 657.2041,566.1643 657.2861,566.1083 C657.7341,565.8093 658.3441,565.3973 659.0441,565.1513 C659.8321,564.8733 660.2651,564.8633 660.5311,565.1173 C660.6051,565.1883 660.6671,565.2793 660.7011,565.3963 C661.1461,565.0003 661.9571,564.1933 662.8351,563.2083 C663.8411,562.0753 664.9391,560.7023 665.6741,559.4483 C667.3031,556.6533 672.5181,547.6873 668.8921,542.9483 C665.2661,538.2103 656.4881,548.8463 655.3781,550.2213" id="Fill-25" fill="#FEFEFE"></path>
                <path d="M655.984,547.818 C653.153,551.339 651.941,555.282 651.715,556.628 C651.789,556.657 651.958,556.377 652.288,556.616 C652.396,556.694 652.683,556.976 653.133,558.583 C653.295,559.163 653.436,559.857 653.563,560.472 C653.639,560.836 653.711,561.189 653.779,561.465 C653.812,561.434 653.844,561.401 653.876,561.372 C654.086,561.174 654.351,560.925 654.67,560.7 C655.45,560.154 656.182,560.183 656.845,560.787 C657.03,560.956 657.216,561.178 657.418,561.461 C658.025,562.324 658.076,563.193 658.103,563.965 C658.191,563.91 658.279,563.85 658.362,563.794 C658.814,563.496 659.435,563.084 660.147,562.842 C660.953,562.567 661.397,562.561 661.674,562.815 C661.974,563.09 662.03,563.5 662.066,563.619 C663.031,562.773 665.474,560.218 666.826,557.862 C668.431,555.061 673.547,545.363 669.694,540.583 C665.84,535.803 657.092,546.441 655.984,547.818" id="Fill-27" fill="#E62D40"></path>
                <path d="M661.3634,564.0885 C661.5354,564.2475 661.6184,564.5665 661.0374,565.2025 C660.8424,565.4165 660.4994,565.7105 659.8824,566.2475 C658.9594,567.0455 657.2194,567.9855 654.7244,570.3035 C651.4704,573.3235 651.1494,574.6945 649.9124,577.0515 C649.5964,577.6485 649.2414,578.3285 648.7814,579.1515 C646.5644,583.1115 644.4674,591.0675 644.4484,591.1455 L644.4274,591.2125 L644.3774,591.2625 C643.9394,591.6515 643.3104,591.4255 643.6854,589.8975 C644.6804,585.8615 650.6414,571.7175 650.7434,571.4925 C651.4084,569.9875 651.1964,563.6505 651.2074,560.4335 L651.2134,559.6075 C651.2224,558.2375 651.3594,557.9105 651.5924,557.8055 C651.6544,557.7785 651.8114,557.7365 651.9804,557.8875 C652.2634,558.1495 652.5584,559.0415 652.7544,559.7435 C652.9134,560.3155 653.0544,561.0095 653.1804,561.6175 C653.2874,562.1425 653.3894,562.6345 653.4784,562.9285 C653.4824,562.9495 653.4884,562.9675 653.4934,562.9775 C653.5864,562.9225 653.7484,562.7705 653.8804,562.6435 C654.0874,562.4515 654.3454,562.2055 654.6504,561.9915 C655.3404,561.5085 655.9554,561.5335 656.5344,562.0605 C656.7054,562.2195 656.8824,562.4255 657.0724,562.6955 C657.6624,563.5355 657.6924,564.4005 657.7194,565.1635 C657.7224,565.2555 657.7294,565.4485 657.7324,565.4555 C657.8664,565.4055 658.1234,565.2315 658.3374,565.0905 C658.7804,564.7965 659.3854,564.3945 660.0664,564.1655 C660.7704,563.9255 661.1584,563.9035 661.3634,564.0885" id="Fill-29" fill="#89BD23"></path>
                <path d="M732.291,599.1956 C734.477,595.2366 734.727,591.3476 734.741,589.9836 C734.667,589.9696 734.593,589.9376 734.526,589.8916 C734.42,589.8216 734.096,589.6066 733.43,588.1046 C733.187,587.5616 732.947,586.9026 732.735,586.3206 C732.612,585.9716 732.489,585.6366 732.386,585.3756 C732.358,585.4146 732.33,585.4496 732.305,585.4846 C732.132,585.7176 731.914,586.0066 731.643,586.2856 C730.98,586.9586 730.274,587.0576 729.552,586.5776 C729.351,586.4436 729.136,586.2566 728.903,586.0136 C728.195,585.2666 728.018,584.4236 727.877,583.6696 C727.803,583.7366 727.726,583.8106 727.655,583.8806 C727.267,584.2546 726.735,584.7656 726.09,585.1286 C725.36,585.5376 724.937,585.6226 724.63,585.4216 C724.546,585.3646 724.468,585.2836 724.415,585.1746 C724.045,585.6396 723.386,586.5776 722.695,587.6986 C721.898,588.9896 721.055,590.5296 720.551,591.8976 C719.43,594.9336 715.852,604.6676 720.244,608.7036 C724.641,612.7406 731.438,600.7436 732.291,599.1956" id="Fill-49" fill="#FEFEFE"></path>
                <g id="Group-53" transform="translate(717.000000, 586.000000)">
                    <mask id="mask-2" fill="white">
                        <use xlink:href="#path-1"></use>
                    </mask>
                    <g id="Clip-52"></g>
                    <path d="M15.113,15.6684 C17.288,11.7094 17.8,7.6164 17.785,6.2514 C17.708,6.2344 17.592,6.5404 17.225,6.3644 C17.105,6.3044 16.773,6.0754 16.051,4.5734 C15.79,4.0304 15.529,3.3714 15.3,2.7894 C15.162,2.4404 15.028,2.1054 14.915,1.8444 C14.887,1.8834 14.859,1.9184 14.835,1.9544 C14.662,2.1864 14.443,2.4764 14.168,2.7544 C13.495,3.4274 12.772,3.5264 12.014,3.0474 C11.799,2.9094 11.577,2.7264 11.33,2.4794 C10.582,1.7354 10.382,0.8894 10.219,0.1354 C10.145,0.2024 10.068,0.2794 9.994,0.3464 C9.603,0.7204 9.063,1.2354 8.404,1.5944 C7.66,2.0034 7.223,2.0914 6.905,1.8874 C6.56,1.6684 6.436,1.2734 6.38,1.1644 C5.577,2.1624 3.613,5.1064 2.693,7.6584 C1.596,10.6934 -1.76,21.1364 2.865,25.1734 C7.491,29.2134 14.263,17.2164 15.113,15.6684" id="Fill-51" fill="#E62D40" mask="url(#mask-2)"></path>
                </g>
                <path d="M723.9895,586.5788 C723.7925,586.4558 723.6545,586.1518 724.1165,585.4258 C724.2715,585.1828 724.5575,584.8298 725.0715,584.1958 C725.8435,583.2508 727.3915,582.0208 729.4505,579.3058 C732.1295,575.7658 732.2075,574.3598 733.0185,571.8248 C733.2225,571.1798 733.4555,570.4498 733.7655,569.5608 C735.2605,565.2778 735.9445,557.0778 735.9515,556.9958 L735.9585,556.9258 L735.9975,556.8698 C736.3605,556.4108 737.0235,556.5238 736.9175,558.0888 C736.6385,562.2388 733.2225,577.2048 733.1635,577.4438 C732.7685,579.0418 734.0795,585.2428 734.6255,588.4118 L734.7635,589.2298 C734.9925,590.5808 734.9155,590.9298 734.7005,591.0698 C734.6475,591.1058 734.4995,591.1758 734.3085,591.0558 C733.9805,590.8478 733.5365,590.0198 733.2225,589.3608 C732.9655,588.8278 732.7045,588.1688 732.4755,587.5908 C732.2815,587.0938 732.0945,586.6248 731.9575,586.3498 C731.9465,586.3318 731.9395,586.3178 731.9325,586.3078 C731.8515,586.3778 731.7175,586.5538 731.6085,586.7018 C731.4385,586.9318 731.2275,587.2138 730.9625,587.4778 C730.3705,588.0738 729.7605,588.1588 729.0975,587.7388 C728.9005,587.6118 728.6925,587.4388 728.4565,587.2028 C727.7305,586.4798 727.5505,585.6338 727.3915,584.8898 C727.3705,584.7988 727.3315,584.6078 727.3285,584.6008 C727.2045,584.6748 726.9795,584.8898 726.7955,585.0668 C726.4115,585.4328 725.8865,585.9338 725.2555,586.2788 C724.6035,586.6388 724.2255,586.7268 723.9895,586.5788" id="Fill-54" fill="#89BD23"></path>
                <g id="Group" transform="translate(303.080040, 571.776004) rotate(28.000000) translate(-303.080040, -571.776004) translate(268.080040, 516.776004)">
                    <path d="M54.0025274,84.764 C58.9575274,77.14 60.0165274,69.384 60.2435274,66.645 C60.0965274,66.605 59.9555274,66.535 59.8215274,66.43 C59.6185274,66.274 59.0005274,65.797 57.8775274,62.687 C57.4735274,61.567 57.0905274,60.208 56.7515274,59.011 C56.5455274,58.295 56.3535274,57.606 56.1815274,57.071 C56.1205274,57.141 56.0595274,57.212 56.0045274,57.276 C55.6215274,57.72 55.1475274,58.271 54.5595274,58.785 C53.1335274,60.043 51.7075274,60.141 50.3265274,59.073 C49.9405274,58.776 49.5405274,58.375 49.1085274,57.848 C47.7955274,56.254 47.5625274,54.537 47.3885274,53 C47.2295274,53.129 47.0645274,53.266 46.9105274,53.395 C46.0785274,54.09 44.9395274,55.042 43.5965274,55.675 C42.0725274,56.391 41.2115274,56.502 40.6275274,56.049 C40.4655274,55.923 40.3185274,55.752 40.2295274,55.525 C39.4185274,56.407 37.9645274,58.188 36.4125274,60.343 C34.6315274,62.816 32.7245274,65.785 31.5155274,68.447 C28.8285274,74.373 20.2555274,93.38 28.4855274,102.103 C36.7125274,110.826 52.0655274,87.745 54.0025274,84.764" id="Fill-62" fill="#FEFEFE"></path>
                    <path d="M53.8083428,89.846 C58.7423428,82.219 60.3553428,74.087 60.5233428,71.347 C60.3733428,71.304 60.0953428,71.898 59.3813428,71.491 C59.1523428,71.359 58.5183428,70.854 57.2883428,67.736 C56.8443428,66.612 56.4163428,65.25 56.0363428,64.051 C55.8133428,63.331 55.5953428,62.643 55.4023428,62.104 C55.3443428,62.174 55.2833428,62.245 55.2283428,62.309 C54.8463428,62.753 54.3683428,63.301 53.7743428,63.818 C52.3303428,65.073 50.8603428,65.165 49.4133428,64.093 C49.0063428,63.793 48.5863428,63.392 48.1273428,62.863 C46.7353428,61.262 46.4533428,59.539 46.2363428,58 C46.0773428,58.128 45.9083428,58.269 45.7523428,58.394 C44.9133428,59.089 43.7603428,60.038 42.3853428,60.668 C40.8303428,61.385 39.9463428,61.492 39.3343428,61.039 C38.6763428,60.552 38.4833428,59.741 38.3883428,59.515 C36.6343428,61.403 32.2733428,67.019 30.0573428,72.008 C27.4253428,77.94 19.1923428,98.388 27.8873428,107.151 C36.5793428,115.911 51.8803428,92.827 53.8083428,89.846" id="Fill-64" fill="#E62D40"></path>
                    <path d="M39.3193524,58.2601655 C38.9433524,57.9811655 38.7103524,57.3571655 39.7383524,55.9651655 C40.0843524,55.4991655 40.7053524,54.8381655 41.8353524,53.6381655 C43.5153524,51.8511655 46.7993524,49.6111655 51.3143524,44.4591655 C57.1963524,37.7471655 57.5553524,34.9411655 59.5443524,29.9731655 C60.0493524,28.7121655 60.6213524,27.2801655 61.3713524,25.5411655 C64.9863524,17.1671655 67.5363524,0.826165464 67.5633524,0.664165464 L67.5843524,0.523165464 L67.6763524,0.419165464 C68.4693524,-0.452834536 69.7763524,-0.131834536 69.3413524,2.99616546 C68.1873524,11.2751655 59.1833524,40.7861655 59.0273524,41.2611655 C58.0013524,44.4071655 59.7433524,57.0301655 60.3763524,63.4631655 L60.5423524,65.1191655 C60.8053524,67.8611655 60.5973524,68.5471655 60.1503524,68.7981655 C60.0373524,68.8621655 59.7313524,68.9851655 59.3663524,68.7151655 C58.7393524,68.2531655 57.9683524,66.5271655 57.4293524,65.1621655 C56.9943524,64.0541655 56.5663524,62.6981655 56.1893524,61.5041655 C55.8683524,60.4821655 55.5653524,59.5181655 55.3263524,58.9461655 C55.3113524,58.9061655 55.2963524,58.8751655 55.2843524,58.8541655 C55.1093524,58.9851655 54.8183524,59.3221655 54.5763524,59.6011655 C54.2063524,60.0321655 53.7413524,60.5681655 53.1723524,61.0641655 C51.8983524,62.1691655 50.6623524,62.2511655 49.3953524,61.3151655 C49.0183524,61.0361655 48.6233524,60.6571655 48.1863524,60.1551655 C46.8333524,58.5971655 46.5943524,56.8771655 46.3833524,55.3581655 C46.3593524,55.1751655 46.3003524,54.7861655 46.3003524,54.7771655 C46.0403524,54.9061655 45.5603524,55.3001655 45.1623524,55.6311655 C44.3383524,56.3101655 43.2123524,57.2381655 41.8963524,57.8411655 C40.5373524,58.4651655 39.7663524,58.5911655 39.3193524,58.2601655" id="Fill-66" fill="#89BD23"></path>
                    <path d="M28.693543,59.778 C35.029543,55.698 38.463543,50.195 39.565543,48.206 C39.470543,48.123 39.384543,48.022 39.320543,47.899 C39.219543,47.713 38.913543,47.14 39.121543,44.41 C39.197543,43.425 39.369543,42.268 39.519543,41.249 C39.607543,40.636 39.693543,40.052 39.745543,39.587 C39.678543,39.62 39.607543,39.654 39.543543,39.681 C39.105543,39.887 38.561543,40.141 37.939543,40.333 C36.434543,40.799 35.325543,40.385 34.643543,39.112 C34.453543,38.754 34.288543,38.316 34.141543,37.772 C33.688543,36.122 34.095543,34.742 34.487543,33.523 C34.325543,33.566 34.150543,33.615 33.991543,33.658 C33.125543,33.9 31.943543,34.233 30.710543,34.255 C29.317543,34.279 28.629543,34.068 28.341543,33.53 C28.261543,33.38 28.206543,33.199 28.219543,33 C27.307543,33.389 25.602543,34.24 23.698543,35.341 C21.513543,36.605 19.061543,38.2 17.243543,39.804 C13.200543,43.37 0.26554305,54.823 3.51954305,64.21 C6.77554305,73.6 26.217543,61.373 28.693543,59.778" id="Fill-68" fill="#FEFEFE"></path>
                    <path d="M26.082302,63.164 C32.399302,59.075 36.381302,53.48 37.440302,51.463 C37.342302,51.38 36.929302,51.735 36.528302,51.188 C36.400302,51.007 36.093302,50.41 36.222302,47.637 C36.271302,46.633 36.409302,45.461 36.531302,44.423 C36.605302,43.805 36.672302,43.211 36.712302,42.74 C36.641302,42.771 36.574302,42.804 36.510302,42.835 C36.069302,43.037 35.521302,43.291 34.897302,43.481 C33.382302,43.937 32.240302,43.508 31.509302,42.207 C31.304302,41.84 31.123302,41.393 30.955302,40.839 C30.447302,39.156 30.820302,37.757 31.178302,36.521 C31.016302,36.564 30.838302,36.612 30.679302,36.655 C29.807302,36.894 28.613302,37.222 27.361302,37.231 C25.944302,37.243 25.240302,37.023 24.931302,36.472 C24.601302,35.881 24.729302,35.202 24.735302,35 C22.767302,35.832 17.564302,38.593 14.194302,41.611 C10.191302,45.198 -2.97869799,57.857 0.614302007,67.434 C4.21030201,77.011 23.612302,64.762 26.082302,63.164" id="Fill-70" fill="#E62D40"></path>
                    <path d="M26.0848967,35.183796 C25.8948967,34.843796 25.9318967,34.295796 27.1808967,33.591796 C27.6028967,33.356796 28.2948967,33.068796 29.5558967,32.545796 C31.4318967,31.764796 34.6758967,31.186796 39.8368967,28.829796 C46.5638967,25.756796 47.7848967,23.754796 50.9768967,20.675796 C51.7878967,19.895796 52.7068967,19.007796 53.8638967,17.948796 C59.4398967,12.846796 66.9178967,1.36279596 66.9938967,1.24979596 L67.0588967,1.15179596 L67.1628967,1.10279596 C68.0588967,0.713795958 68.9348967,1.40279596 67.5448967,3.61579596 C63.8628967,9.48279596 47.0288967,28.725796 46.7538967,29.034796 C44.9108967,31.060796 41.9358967,41.194796 40.2318967,46.272796 L39.7908967,47.579796 C39.0588967,49.743796 38.6708967,50.190796 38.2448967,50.229796 C38.1378967,50.238796 37.8658967,50.226796 37.6818967,49.896796 C37.3668967,49.336796 37.3698967,47.768796 37.4278967,46.557796 C37.4738967,45.568796 37.6108967,44.399796 37.7308967,43.370796 C37.8348967,42.486796 37.9328967,41.653796 37.9478967,41.139796 L37.9478967,41.056796 C37.7708967,41.096796 37.4368967,41.252796 37.1588967,41.381796 C36.7328967,41.580796 36.1968967,41.828796 35.6008967,42.008796 C34.2628967,42.412796 33.3018967,42.054796 32.6618967,40.916796 C32.4728967,40.576796 32.3008967,40.157796 32.1418967,39.627796 C31.6488967,37.993796 32.0498967,36.609796 32.4078967,35.391796 C32.4508967,35.244796 32.5398967,34.932796 32.5428967,34.923796 C32.3038967,34.932796 31.8048967,35.067796 31.3918967,35.180796 C30.5408967,35.416796 29.3748967,35.734796 28.1748967,35.743796 C26.9358967,35.752796 26.3108967,35.587796 26.0848967,35.183796" id="Fill-72" fill="#89BD23"></path>
                </g>
                <path d="M790.823,364.2269 C790.262,360.2329 788.359,357.3239 787.639,356.3439 C787.576,356.3719 787.509,356.3899 787.435,356.3929 C787.322,356.3999 786.973,356.4219 785.693,355.7059 C785.231,355.4479 784.71,355.1069 784.248,354.8029 C783.969,354.6239 783.705,354.4509 783.49,354.3199 C783.49,354.3629 783.493,354.4009 783.493,354.4399 C783.493,354.6979 783.493,355.0219 783.448,355.3639 C783.335,356.2029 782.887,356.6509 782.115,356.6969 C781.896,356.7069 781.646,356.6889 781.35,356.6399 C780.448,356.4879 779.866,355.9809 779.362,355.5149 C779.347,355.6039 779.33,355.6989 779.316,355.7869 C779.242,356.2629 779.136,356.9119 778.871,357.5139 C778.568,358.1979 778.314,358.4869 777.987,358.5049 C777.895,358.5119 777.796,358.4979 777.701,358.4449 C777.683,358.9769 777.715,359.9959 777.824,361.1699 C777.948,362.5169 778.173,364.0649 778.543,365.3089 C779.369,368.0769 782.03,376.9359 787.326,377.4619 C792.617,377.9869 791.042,365.7889 790.823,364.2269" id="Fill-86" fill="#FEFEFE"></path>
                <path d="M792.019,366.0866 C791.451,362.0996 789.625,358.9056 788.881,357.9356 C788.821,357.9676 788.899,358.2456 788.543,358.3196 C788.426,358.3406 788.067,358.3556 786.748,357.6716 C786.272,357.4206 785.733,357.0926 785.257,356.8006 C784.972,356.6246 784.696,356.4586 784.478,356.3316 L784.478,356.4516 C784.478,356.7126 784.478,357.0366 784.432,357.3826 C784.312,358.2216 783.847,358.6796 783.05,358.7426 C782.828,358.7606 782.567,358.7496 782.264,358.7046 C781.33,358.5736 780.734,358.0806 780.212,357.6256 C780.198,357.7166 780.18,357.8126 780.166,357.9006 C780.085,358.3766 779.976,359.0316 779.701,359.6416 C779.391,360.3326 779.123,360.6256 778.788,360.6536 C778.425,360.6816 778.125,360.4666 778.026,360.4176 C777.988,361.5636 778.164,364.7116 778.873,367.0276 C779.718,369.7776 782.913,379.0256 788.377,379.4276 C793.838,379.8286 792.241,367.6486 792.019,366.0866" id="Fill-88" fill="#E62D40"></path>
                <path d="M778.1479,359.675 C777.9399,359.693 777.6829,359.552 777.6189,358.783 C777.6019,358.526 777.6159,358.124 777.6439,357.398 C777.6859,356.308 778.1339,354.602 778.1479,351.563 C778.1619,347.604 777.4679,346.557 776.6849,344.314 C776.4879,343.747 776.2619,343.102 776.0079,342.301 C774.7809,338.444 770.8779,332.229 770.8399,332.166 L770.8039,332.113 L770.8079,332.053 C770.8179,331.527 771.3509,331.256 772.1119,332.43 C774.1359,335.539 779.7129,348.041 779.7979,348.245 C780.3729,349.596 784.6279,353.319 786.7149,355.286 L787.2509,355.793 C788.1389,356.636 788.2659,356.925 788.1919,357.14 C788.1709,357.197 788.1039,357.323 787.9029,357.341 C787.5609,357.366 786.7999,357.013 786.2209,356.714 C785.7519,356.47 785.2169,356.142 784.7409,355.85 C784.3349,355.603 783.9539,355.367 783.7079,355.243 C783.6899,355.236 783.6759,355.229 783.6659,355.226 C783.6479,355.321 783.6479,355.518 783.6479,355.681 C783.6479,355.934 783.6479,356.248 783.6019,356.58 C783.4999,357.323 783.1079,357.708 782.4099,357.764 C782.2019,357.782 781.9589,357.768 781.6699,357.729 C780.7599,357.602 780.1819,357.094 779.6679,356.647 C779.6069,356.594 779.4729,356.481 779.4699,356.477 C779.4209,356.594 779.3749,356.869 779.3399,357.094 C779.2619,357.56 779.1529,358.198 778.8879,358.783 C778.6169,359.389 778.3949,359.654 778.1479,359.675" id="Fill-90" fill="#89BD23"></path>
                <path d="M775.0522,363.4717 C775.9862,360.2597 775.5352,357.4187 775.3232,356.4317 C775.2672,356.4317 775.2112,356.4207 775.1512,356.3997 C775.0632,356.3677 774.7952,356.2657 774.0722,355.2887 C773.8082,354.9367 773.5292,354.4997 773.2822,354.1147 C773.1342,353.8857 772.9932,353.6637 772.8772,353.4947 C772.8632,353.5227 772.8492,353.5547 772.8342,353.5827 C772.7502,353.7797 772.6412,354.0237 772.4892,354.2697 C772.1192,354.8627 771.6292,355.0497 771.0302,354.8197 C770.8602,354.7527 770.6772,354.6547 770.4692,354.5167 C769.8382,354.0937 769.5732,353.5157 769.3482,352.9937 C769.3052,353.0537 769.2632,353.1207 769.2212,353.1847 C769.0022,353.5157 768.7032,353.9707 768.2972,354.3367 C767.8392,354.7497 767.5462,354.8797 767.2922,354.7847 C767.2222,354.7567 767.1512,354.7147 767.0982,354.6437 C766.9052,355.0387 766.5842,355.8177 766.2662,356.7417 C765.9032,357.8027 765.5472,359.0507 765.4032,360.1157 C765.0852,362.4877 764.0912,370.0857 767.9132,372.2857 C771.7342,374.4787 774.6852,364.7267 775.0522,363.4717" id="Fill-92" fill="#FEFEFE"></path>
                <path d="M775.3245,365.2832 C776.2515,362.0752 775.9555,359.0432 775.7225,358.0592 C775.6665,358.0592 775.6315,358.2992 775.3345,358.2322 C775.2405,358.2112 774.9645,358.0982 774.1995,357.1322 C773.9245,356.7832 773.6285,356.3492 773.3675,355.9652 C773.2125,355.7362 773.0645,355.5172 772.9375,355.3482 C772.9235,355.3802 772.9095,355.4122 772.8985,355.4402 C772.8105,355.6372 772.7015,355.8802 772.5465,356.1242 C772.1725,356.7192 771.6645,356.9102 771.0405,356.6842 C770.8645,356.6242 770.6745,356.5262 770.4595,356.3882 C769.7965,355.9722 769.5145,355.3982 769.2745,354.8792 C769.2325,354.9392 769.1895,355.0062 769.1475,355.0702 C768.9255,355.4012 768.6185,355.8592 768.2025,356.2262 C767.7335,356.6422 767.4345,356.7762 767.1695,356.6812 C766.8875,356.5782 766.7325,356.3142 766.6765,356.2442 C766.2565,357.0972 765.3195,359.5362 765.0685,361.5252 C764.7725,363.8942 764.0495,371.9672 768.0405,374.1252 C772.0315,376.2862 774.9615,366.5382 775.3245,365.2832" id="Fill-94" fill="#E62D40"></path>
                <path d="M767.0186,355.7234 C766.8566,355.6634 766.7086,355.4694 766.9236,354.8704 C766.9936,354.6694 767.1426,354.3734 767.4136,353.8304 C767.8156,353.0224 768.7316,351.8844 769.7716,349.5924 C771.1326,346.6064 770.9606,345.5804 771.1296,343.6204 C771.1746,343.1234 771.2246,342.5594 771.3016,341.8644 C771.6866,338.5334 770.8476,332.5114 770.8406,332.4514 L770.8326,332.3984 L770.8546,332.3524 C771.0406,331.9614 771.5346,331.9364 771.7116,333.0824 C772.1866,336.1214 772.1516,347.4634 772.1486,347.6464 C772.1236,348.8624 774.0766,353.1214 774.9826,355.3184 L775.2156,355.8854 C775.5996,356.8234 775.5996,357.0844 775.4696,357.2214 C775.4376,357.2574 775.3426,357.3314 775.1836,357.2744 C774.9156,357.1794 774.4606,356.6544 774.1256,356.2314 C773.8546,355.8854 773.5616,355.4554 773.3006,355.0744 C773.0786,354.7504 772.8706,354.4404 772.7266,354.2634 C772.7166,354.2534 772.7086,354.2424 772.7016,354.2354 C772.6526,354.3024 772.5856,354.4504 772.5326,354.5744 C772.4446,354.7684 772.3386,355.0044 772.1906,355.2404 C771.8626,355.7624 771.4356,355.9244 770.8896,355.7304 C770.7276,355.6704 770.5476,355.5784 770.3396,355.4484 C769.6976,355.0434 769.4336,354.4644 769.1976,353.9534 C769.1696,353.8904 769.1056,353.7594 769.1056,353.7564 C769.0286,353.8304 768.9016,354.0204 768.7956,354.1794 C768.5766,354.5034 768.2806,354.9474 767.8826,355.3034 C767.4696,355.6674 767.2126,355.7934 767.0186,355.7234" id="Fill-96" fill="#89BD23"></path>
                <path d="M753.5583,403.3846 L755.0813,406.2546 L755.7863,407.5766 L760.7923,416.9086 C760.7923,416.9086 761.9283,419.1326 762.8443,419.3796 C765.1043,419.9826 771.7673,422.0206 777.6903,430.0796 C781.1813,434.8356 784.4273,442.6196 786.8563,449.4246 C789.4833,456.7816 792.3913,468.5076 792.4063,472.3646 C792.4063,472.8196 792.3283,474.2046 791.3623,473.7956 C783.8463,470.6196 772.5323,458.4106 767.9113,449.3646 C763.2883,440.3216 760.4223,432.6036 760.5993,426.1386 C760.6763,423.3036 760.7013,421.7776 760.7013,420.9556 C760.7013,420.0316 759.5723,417.8106 759.5723,417.8106 L758.0713,414.8386 L755.4623,409.9276 L753.4633,405.8246 L752.4303,403.3636 C752.4303,403.3636 752.1733,402.5636 752.5433,402.3546 C752.9133,402.1436 753.5583,403.3846 753.5583,403.3846" id="Fill-98" fill="#89BD23"></path>
                <path d="M791.4661,472.1619 L775.4921,444.0709 L763.8611,422.1809 C763.8611,422.1809 763.5861,421.5639 762.8531,421.6099 C762.1161,421.6519 762.4971,422.2579 762.4971,422.2579 L784.4921,460.5489 L790.4931,471.0869 L791.1451,472.7899 L791.4661,472.1619 Z" id="Fill-100" fill="#FEFEFE"></path>
                <path d="M763.8608,422.1791 L790.9338,471.7121 L787.1858,465.2781 L786.1318,469.4381 L786.7348,464.4291 L781.9648,455.4531 L780.7978,459.7041 L779.2748,463.7591 L781.3718,455.4701 L774.0248,441.6431 L769.4138,452.0361 L771.3948,445.6661 L773.6438,440.9281 L767.7708,431.4371 L763.7728,440.3951 L764.9258,434.5181 L766.9458,430.0021 C766.9458,430.0021 763.8608,422.1791 762.8528,421.6081" id="Fill-102" fill="#FEFEFE"></path>
            </g>
            <polygon id="Fill-105" fill="#FEFEFE" points="842.4304 509.2629 852.8584 511.3389 853.4154 511.0219 847.6944 509.7139 842.6874 508.3219 841.5844 507.9899"></polygon>
            <polygon id="Fill-106" fill="#FEFEFE" points="848.0251 520.1162 857.6111 523.3812 858.5241 523.2892 847.6441 519.4002"></polygon>
            <polygon id="Fill-107" fill="#FEFEFE" points="855.9661 533.9263 860.8421 535.9463 863.5111 536.4473 855.6951 533.2813"></polygon>
            <polygon id="Fill-108" fill="#FEFEFE" points="861.1855 543.7497 864.5945 544.3317 860.7345 542.9037"></polygon>
            <g id="Group-115" transform="translate(645.000000, 600.471000)">
                <path d="M14.481,2.0349 L14.118,4.8479 L13.948,6.1419 L12.806,15.3229 C12.806,15.3229 12.485,17.4769 13.102,18.1429 C14.611,19.7749 18.933,24.7749 19.254,33.5569 C19.445,38.7389 17.731,45.8889 15.895,51.9239 C13.91,58.4469 9.7,68.1559 7.543,70.8389 C7.289,71.1559 6.446,72.0759 5.882,71.2719 C1.503,65.0249 -0.904,50.4579 0.393,41.6899 C1.687,32.9179 3.679,26.0189 7.458,21.6259 C9.118,19.6979 9.993,18.6509 10.458,18.0799 C10.976,17.4419 11.301,15.2869 11.301,15.2869 L11.738,12.4179 L12.362,7.6019 L13.032,3.6779 L13.568,1.4139 C13.568,1.4139 13.804,0.7199 14.227,0.7729 C14.65,0.8259 14.481,2.0349 14.481,2.0349" id="Fill-109" fill="#89BD23"></path>
                <path d="M6.8872,70.1946 L9.5872,42.0926 L12.3582,20.6296 C12.3582,20.6296 12.4822,20.0586 11.8552,19.6916 C11.2272,19.3246 11.1952,19.9526 11.1952,19.9526 L7.6982,58.3766 L6.6932,68.9256 L6.2702,70.4556 L6.8872,70.1946 Z" id="Fill-111" fill="#FEFEFE"></path>
                <path d="M12.3594,20.6309 L6.7014,69.5929 L7.2474,63.1129 L4.0424,65.4329 L7.3574,62.2809 L8.4924,53.4819 L5.1424,55.8009 L1.6134,57.8009 L7.9944,53.1709 L9.7474,39.6159 L0.1194,44.3539 L5.3294,40.9939 L9.8354,38.9179 L10.3574,29.1629 L2.0434,33.2349 L6.2924,29.7729 L10.4914,27.7239 C10.4914,27.7239 12.3594,20.6309 11.8514,19.6899" id="Fill-113" fill="#FEFEFE"></path>
            </g>
            <polygon id="Fill-116" fill="#FEFEFE" points="656.2632 629.5419 663.6492 636.5929 664.2802 636.6739 660.3252 632.6829 657.0032 629.0269 656.2812 628.2019"></polygon>
            <polygon id="Fill-117" fill="#FEFEFE" points="654.7463 640.0885 660.7753 647.5095 661.5713 647.9395 654.8383 639.3875"></polygon>
            <polygon id="Fill-118" fill="#FEFEFE" points="653.4927 653.9519 656.3557 657.9779 658.2627 659.7619 653.6337 653.3599"></polygon>
            <polygon id="Fill-119" fill="#FEFEFE" points="652.2498 663.5829 654.7178 665.8219 652.3558 662.7509"></polygon>
            <g id="Group-137" transform="translate(455.000000, 590.471000)">
                <path d="M16.3281,1.1249 L15.6931,2.7429 L15.4011,3.4909 L13.3591,8.7819 C13.3591,8.7819 12.8481,10.0159 13.1161,10.5029 C13.7761,11.7009 15.6051,15.3189 14.4911,20.5889 C13.8351,23.7019 11.7551,27.7039 9.7671,31.0209 C7.6201,34.6099 3.6751,39.7609 1.9901,41.0409 C1.7921,41.1889 1.1541,41.6119 0.9391,41.0479 C-0.7389,36.6829 -0.0129,27.6579 2.0601,22.6309 C4.1331,17.6069 6.3401,13.7959 9.2421,11.7399 C10.5141,10.8409 11.1911,10.3439 11.5541,10.0759 C11.9561,9.7729 12.4671,8.5389 12.4671,8.5389 L13.1551,6.8959 L14.2411,4.1249 L15.2211,1.8899 L15.8771,0.6209 C15.8771,0.6209 16.1201,0.2429 16.3631,0.3349 C16.6061,0.4299 16.3281,1.1249 16.3281,1.1249" id="Fill-131" fill="#89BD23"></path>
                <path d="M1.697,40.5569 L7.472,24.2339 L12.305,11.8769 C12.305,11.8769 12.464,11.5529 12.147,11.2419 C11.826,10.9319 11.717,11.2989 11.717,11.2989 L3.932,33.6469 L1.771,39.7739 L1.292,40.6239 L1.697,40.5569 Z" id="Fill-133" fill="#FEFEFE"></path>
                <path d="M12.3069,11.8762 L1.6739,40.1722 L2.9639,36.3962 L0.7119,37.3022 L3.1509,35.9162 L5.1319,30.8502 L2.7949,31.7352 L0.3979,32.3982 L4.8819,30.5932 L7.9349,22.7872 L1.5049,24.1802 L5.1039,22.9502 L8.0939,22.3822 L9.8499,16.6572 L4.3009,17.8452 L7.3389,16.4172 L10.1419,15.8212 C10.1419,15.8212 12.3069,11.8762 12.1449,11.2412" id="Fill-135" fill="#FEFEFE"></path>
            </g>
            <polygon id="Fill-138" fill="#FEFEFE" points="465.4023 607.2068 468.7513 612.4988 469.1143 612.6398 467.3523 609.6778 465.9203 607.0088 465.6103 606.4138"></polygon>
            <polygon id="Fill-139" fill="#FEFEFE" points="462.9343 613.2586 465.4193 618.5716 465.8323 618.9416 463.0923 612.8536"></polygon>
            <polygon id="Fill-140" fill="#FEFEFE" points="460.1323 621.3211 461.2363 624.1411 462.1103 625.4881 460.3053 620.9901"></polygon>
            <polygon id="Fill-141" fill="#FEFEFE" points="457.9622 626.8675 459.1012 628.5665 458.1492 626.3875"></polygon>
            <g id="Group-159" transform="translate(770.000000, 603.471000)">
                <path d="M7.5149,0.9803 L7.3279,2.4293 L7.2399,3.0953 L6.6509,7.8273 C6.6509,7.8273 6.4849,8.9373 6.8029,9.2793 C7.5819,10.1223 9.8099,12.6993 9.9759,17.2253 C10.0739,19.8943 9.1899,23.5823 8.2449,26.6913 C7.2219,30.0553 5.0499,35.0543 3.9399,36.4393 C3.8059,36.6023 3.3719,37.0783 3.0829,36.6623 C0.8269,33.4433 -0.4141,25.9373 0.2519,21.4173 C0.9219,16.8983 1.9479,13.3403 3.8939,11.0773 C4.7509,10.0833 5.2019,9.5433 5.4419,9.2473 C5.7099,8.9193 5.8759,7.8093 5.8759,7.8093 L6.1009,6.3323 L6.4219,3.8503 L6.7679,1.8263 L7.0429,0.6593 C7.0429,0.6593 7.1659,0.3033 7.3839,0.3313 C7.6029,0.3563 7.5149,0.9803 7.5149,0.9803" id="Fill-153" fill="#89BD23"></path>
                <path d="M3.6011,36.1071 L4.9941,21.6241 L6.4211,10.5651 C6.4211,10.5651 6.4851,10.2691 6.1611,10.0781 C5.8361,9.8911 5.8221,10.2161 5.8221,10.2161 L4.0201,30.0151 L3.5021,35.4511 L3.2841,36.2411 L3.6011,36.1071 Z" id="Fill-155" fill="#FEFEFE"></path>
                <path d="M6.4211,10.5644 L3.5051,35.8004 L3.7871,32.4574 L2.1341,33.6534 L3.8441,32.0274 L4.4291,27.4934 L2.7021,28.6894 L0.8821,29.7184 L4.1721,27.3354 L5.0741,20.3474 L0.1141,22.7904 L2.8001,21.0594 L5.1201,19.9884 L5.3881,14.9604 L1.1051,17.0584 L3.2941,15.2744 L5.4591,14.2204 C5.4591,14.2204 6.4211,10.5644 6.1601,10.0814" id="Fill-157" fill="#FEFEFE"></path>
            </g>
            <polygon id="Fill-160" fill="#FEFEFE" points="775.8567 618.3837 779.6647 622.0187 779.9887 622.0607 777.9507 620.0017 776.2377 618.1197 775.8667 617.6927"></polygon>
            <polygon id="Fill-161" fill="#FEFEFE" points="775.075 623.8193 778.181 627.6443 778.593 627.8633 775.121 623.4563"></polygon>
            <polygon id="Fill-162" fill="#FEFEFE" points="774.4275 630.9648 775.9045 633.0418 776.8885 633.9618 774.5015 630.6578"></polygon>
            <polygon id="Fill-163" fill="#FEFEFE" points="773.7866 635.9274 775.0626 637.0834 773.8426 635.5004"></polygon>
            <g id="Group-181" transform="translate(865.000000, 348.471000)">
                <path d="M13.9231,1.1613 L13.3911,2.5223 L13.1471,3.1493 L11.4311,7.5953 C11.4311,7.5953 11.0001,8.6323 11.2261,9.0443 C11.7761,10.0493 13.3171,13.0883 12.3821,17.5193 C11.8291,20.1323 10.0801,23.4953 8.4091,26.2843 C6.6041,29.2983 3.2901,33.6273 1.8761,34.7033 C1.7071,34.8303 1.1711,35.1823 0.9911,34.7103 C-0.4189,31.0403 0.1911,23.4563 1.9331,19.2333 C3.6741,15.0093 5.5291,11.8083 7.9681,10.0843 C9.0401,9.3263 9.6081,8.9103 9.9111,8.6843 C10.2491,8.4273 10.6801,7.3903 10.6801,7.3903 L11.2581,6.0123 L12.1671,3.6823 L12.9921,1.7993 L13.5421,0.7343 C13.5421,0.7343 13.7501,0.4173 13.9551,0.4983 C14.1591,0.5763 13.9231,1.1613 13.9231,1.1613" id="Fill-175" fill="#89BD23"></path>
                <path d="M1.6277,34.2971 L6.4817,20.5791 L10.5437,10.1971 C10.5437,10.1971 10.6737,9.9251 10.4057,9.6611 C10.1377,9.4001 10.0467,9.7101 10.0467,9.7101 L3.5067,28.4901 L1.6907,33.6381 L1.2857,34.3501 L1.6277,34.2971 Z" id="Fill-177" fill="#FEFEFE"></path>
                <path d="M10.5435,10.196 L1.6095,33.976 L2.6925,30.799 L0.7995,31.561 L2.8505,30.397 L4.5145,26.138 L2.5515,26.882 L0.5345,27.443 L4.3035,25.923 L6.8695,19.362 L1.4655,20.533 L4.4905,19.5 L7.0035,19.024 L8.4815,14.212 L3.8135,15.209 L6.3695,14.011 L8.7245,13.51 C8.7245,13.51 10.5435,10.196 10.4065,9.664" id="Fill-179" fill="#FEFEFE"></path>
            </g>
            <polygon id="Fill-182" fill="#FEFEFE" points="873.9426 362.7482 876.7556 367.1972 877.0626 367.3172 875.5816 364.8282 874.3766 362.5822 874.1186 362.0822"></polygon>
            <polygon id="Fill-183" fill="#FEFEFE" points="871.8706 367.8344 873.9576 372.2974 874.3036 372.6114 872.0046 367.4954"></polygon>
            <polygon id="Fill-184" fill="#FEFEFE" points="869.5132 374.6087 870.4442 376.9817 871.1772 378.1127 869.6582 374.3337"></polygon>
            <polygon id="Fill-185" fill="#FEFEFE" points="867.6917 379.2726 868.6477 380.6976 867.8507 378.8716"></polygon>
            <g id="Group-303" transform="translate(45.000000, 157.471000)">
                <path d="M714.7129,404.7652 C714.7129,402.9532 716.1789,401.4862 717.9919,401.4862 C719.7999,401.4862 721.2699,402.9532 721.2699,404.7652 C721.2699,406.5772 719.7999,408.0442 717.9919,408.0442 C716.1789,408.0442 714.7129,406.5772 714.7129,404.7652" id="Fill-241" fill="#E62D40"></path>
                <path d="M470.2856,481.8025 C470.2856,480.2825 471.5196,479.0495 473.0386,479.0495 C474.5616,479.0495 475.7926,480.2825 475.7926,481.8025 C475.7926,483.3215 474.5616,484.5555 473.0386,484.5555 C471.5196,484.5555 470.2856,483.3215 470.2856,481.8025" id="Fill-249" fill="#E62D40"></path>
                <path d="M433.696,522.1582 C433.696,521.0022 434.634,520.0672 435.787,520.0672 C436.943,520.0672 437.881,521.0022 437.881,522.1582 C437.881,523.3142 436.943,524.2492 435.787,524.2492 C434.634,524.2492 433.696,523.3142 433.696,522.1582" id="Fill-257" fill="#E62D40"></path>
                <path d="M824.7471,440.9811 C824.7471,439.4401 825.9951,438.1921 827.5361,438.1921 C829.0771,438.1921 830.3281,439.4401 830.3281,440.9811 C830.3281,442.5221 829.0771,443.7701 827.5361,443.7701 C825.9951,443.7701 824.7471,442.5221 824.7471,440.9811" id="Fill-259" fill="#E62D40"></path>
                <path d="M787.147,517.2446 C787.147,515.7816 788.335,514.5936 789.798,514.5936 C791.265,514.5936 792.453,515.7816 792.453,517.2446 C792.453,518.7116 791.265,519.8956 789.798,519.8956 C788.335,519.8956 787.147,518.7116 787.147,517.2446" id="Fill-261" fill="#E62D40"></path>
                <path d="M801.7373,523.1598 C801.7373,522.0948 802.5973,521.2348 803.6623,521.2348 C804.7273,521.2348 805.5873,522.0948 805.5873,523.1598 C805.5873,524.2248 804.7273,525.0848 803.6623,525.0848 C802.5973,525.0848 801.7373,524.2248 801.7373,523.1598" id="Fill-263" fill="#E62D40"></path>
                <path d="M460.1833,497.8029 C460.1833,496.7239 461.0573,495.8499 462.1363,495.8499 C463.2153,495.8499 464.0893,496.7239 464.0893,497.8029 C464.0893,498.8819 463.2153,499.7559 462.1363,499.7559 C461.0573,499.7559 460.1833,498.8819 460.1833,497.8029" id="Fill-267" fill="#E62D40"></path>
                <path d="M805.5869,422.0161 C805.5869,420.9371 806.4609,420.0631 807.5399,420.0631 C808.6189,420.0631 809.4929,420.9371 809.4929,422.0161 C809.4929,423.0951 808.6189,423.9691 807.5399,423.9691 C806.4609,423.9691 805.5869,423.0951 805.5869,422.0161" id="Fill-269" fill="#E62D40"></path>
                <path d="M642.5913,485.475 C642.5913,484.34 643.5113,483.423 644.6433,483.423 C645.7783,483.423 646.6953,484.34 646.6953,485.475 C646.6953,486.61 645.7783,487.527 644.6433,487.527 C643.5113,487.527 642.5913,486.61 642.5913,485.475" id="Fill-273" fill="#E62D40"></path>
                <path d="M779.6707,174.0583 C779.7477,173.1803 780.5237,172.5283 781.4017,172.6053 C782.2797,172.6833 782.9287,173.4593 782.8547,174.3363 C782.7767,175.2143 782.0007,175.8673 781.1227,175.7893 C780.2457,175.7113 779.5937,174.9363 779.6707,174.0583" id="Fill-277" fill="#E62D40"></path>
                <path d="M751.9158,381.806 C751.9928,380.928 752.7688,380.276 753.6468,380.353 C754.5248,380.431 755.1738,381.207 755.0998,382.084 C755.0218,382.962 754.2458,383.615 753.3688,383.537 C752.4898,383.459 751.8378,382.684 751.9158,381.806" id="Fill-279" fill="#E62D40"></path>
                <path d="M631.1001,463.7127 C631.1771,462.8347 631.9531,462.1827 632.8311,462.2607 C633.7091,462.3377 634.3581,463.1137 634.2831,463.9917 C634.2061,464.8687 633.4301,465.5217 632.5521,465.4437 C631.6741,465.3657 631.0221,464.5907 631.1001,463.7127" id="Fill-281" fill="#E62D40"></path>
                <path d="M557.3818,496.212 C555.3128,491.809 552.0828,489.14 550.9018,488.266 C550.8418,488.318 550.7718,488.364 550.6868,488.396 C550.5568,488.445 550.1648,488.59 548.4378,488.223 C547.8138,488.093 547.0878,487.885 546.4458,487.701 C546.0648,487.589 545.6948,487.486 545.4018,487.412 C545.4198,487.458 545.4338,487.508 545.4478,487.55 C545.5398,487.849 545.6558,488.22 545.7268,488.632 C545.8958,489.637 545.5358,490.31 544.6618,490.638 C544.4188,490.73 544.1228,490.797 543.7628,490.846 C542.6668,490.994 541.8198,490.614 541.0728,490.261 C541.0868,490.37 541.1008,490.483 541.1148,490.589 C541.1998,491.163 541.3088,491.95 541.2168,492.739 C541.1148,493.635 540.9218,494.058 540.5548,494.195 C540.4488,494.234 540.3288,494.252 540.2018,494.231 C540.3748,494.848 540.7728,496.011 541.3158,497.323 C541.9368,498.831 542.7508,500.534 543.6218,501.835 C545.5578,504.73 551.7828,513.988 558.0688,512.704 C564.3548,511.425 558.1888,497.932 557.3818,496.212" id="Fill-285" fill="#FEFEFE"></path>
                <path d="M559.4226,497.9286 C557.3466,493.5356 554.1026,490.5076 552.9036,489.6576 C552.8436,489.7146 553.0346,490.0066 552.6506,490.2186 C552.5236,490.2856 552.1146,490.4296 550.3516,490.1086 C549.7136,489.9966 548.9736,489.8056 548.3206,489.6406 C547.9296,489.5376 547.5556,489.4426 547.2596,489.3796 C547.2736,489.4246 547.2876,489.4746 547.3026,489.5166 C547.3936,489.8166 547.5096,490.1866 547.5766,490.6026 C547.7426,491.6146 547.3686,492.3086 546.4736,492.6646 C546.2236,492.7636 545.9206,492.8416 545.5496,492.9016 C544.4286,493.0846 543.5686,492.7246 542.8076,492.3896 C542.8216,492.4996 542.8356,492.6156 542.8496,492.7216 C542.9266,493.2996 543.0366,494.0926 542.9336,494.8936 C542.8216,495.8026 542.6206,496.2366 542.2396,496.3846 C541.8336,496.5466 541.4106,496.4056 541.2806,496.3846 C541.6476,497.7166 542.9696,501.2846 544.6116,503.6966 C546.5686,506.5656 553.5456,516.0776 559.9796,514.5976 C566.4176,513.1126 560.2336,499.6456 559.4226,497.9286" id="Fill-287" fill="#E62D40"></path>
                <path d="M541.1558,495.4859 C540.9228,495.5779 540.5738,495.5069 540.2318,494.6469 C540.1158,494.3579 539.9928,493.8889 539.7628,493.0389 C539.4248,491.7699 539.3328,489.6439 538.2608,486.1399 C536.8718,481.5709 535.6948,480.6189 533.9958,478.3129 C533.5648,477.7239 533.0748,477.0619 532.4968,476.2299 C529.7078,472.2249 522.9998,466.4569 522.9328,466.4009 L522.8728,466.3509 L522.8508,466.2769 C522.6788,465.6709 523.1938,465.1699 524.4938,466.2489 C527.9318,469.1079 538.8118,481.5249 538.9838,481.7289 C540.1258,483.0829 546.3598,485.8509 549.4618,487.3769 L550.2618,487.7689 C551.5838,488.4239 551.8338,488.7099 551.8238,488.9849 C551.8208,489.0549 551.7888,489.2279 551.5628,489.3199 C551.1788,489.4709 550.1778,489.3379 549.4018,489.1959 C548.7738,489.0839 548.0378,488.8929 547.3888,488.7309 C546.8348,488.5869 546.3098,488.4529 545.9818,488.3999 C545.9608,488.3959 545.9438,488.3959 545.9288,488.3929 C545.9398,488.5089 546.0098,488.7379 546.0708,488.9249 C546.1578,489.2179 546.2708,489.5769 546.3378,489.9759 C546.4828,490.8679 546.1688,491.4529 545.3858,491.7669 C545.1538,491.8579 544.8678,491.9319 544.5188,491.9889 C543.4298,492.1649 542.5798,491.7879 541.8288,491.4559 C541.7378,491.4139 541.5468,491.3329 541.5398,491.3289 C541.5258,491.4839 541.5718,491.8119 541.6068,492.0869 C541.6848,492.6519 541.7908,493.4269 541.6918,494.1959 C541.5928,494.9889 541.4348,495.3769 541.1558,495.4859" id="Fill-289" fill="#89BD23"></path>
                <path d="M538.9426,500.963 C538.8756,496.933 537.3416,493.817 536.7466,492.756 C536.6826,492.777 536.6126,492.787 536.5386,492.78 C536.4256,492.773 536.0796,492.752 534.8956,491.885 C534.4686,491.575 533.9896,491.169 533.5696,490.813 C533.3156,490.602 533.0766,490.397 532.8786,490.242 C532.8756,490.284 532.8686,490.323 532.8646,490.362 C532.8366,490.619 532.7976,490.94 532.7096,491.275 C532.4946,492.089 531.9936,492.477 531.2216,492.428 C531.0066,492.414 530.7596,492.368 530.4706,492.28 C529.5936,492.019 529.0816,491.444 528.6376,490.926 C528.6096,491.01 528.5846,491.102 528.5596,491.187 C528.4256,491.649 528.2426,492.28 527.9046,492.847 C527.5236,493.489 527.2346,493.743 526.9066,493.722 C526.8146,493.715 526.7196,493.69 526.6316,493.626 C526.5506,494.152 526.4586,495.167 526.4236,496.341 C526.3806,497.695 526.4166,499.257 526.6316,500.536 C527.1106,503.381 528.6726,512.491 533.8586,513.662 C539.0446,514.829 538.9706,502.539 538.9426,500.963" id="Fill-291" fill="#FEFEFE"></path>
                <path d="M539.9023,502.9536 C539.8243,498.9276 538.4033,495.5396 537.7873,494.4886 C537.7203,494.5096 537.7663,494.7986 537.4023,494.8236 C537.2863,494.8346 536.9263,494.8026 535.7003,493.9636 C535.2593,493.6606 534.7623,493.2656 534.3283,492.9166 C534.0673,492.7086 533.8143,492.5106 533.6123,492.3596 C533.6093,492.3986 533.6023,492.4406 533.5993,492.4796 C533.5673,492.7366 533.5283,493.0576 533.4363,493.3926 C533.2183,494.2136 532.7033,494.6086 531.9033,494.5766 C531.6773,494.5666 531.4233,494.5206 531.1233,494.4426 C530.2173,494.1966 529.6853,493.6356 529.2233,493.1206 C529.1983,493.2086 529.1703,493.3006 529.1463,493.3856 C529.0083,493.8506 528.8183,494.4856 528.4723,495.0566 C528.0783,495.7056 527.7783,495.9626 527.4393,495.9486 C527.0763,495.9346 526.8053,495.6836 526.7133,495.6236 C526.5373,496.7526 526.3253,499.8966 526.7483,502.2806 C527.2493,505.1146 529.2943,514.6726 534.6603,515.7366 C540.0293,516.8056 539.9303,504.5256 539.9023,502.9536" id="Fill-293" fill="#E62D40"></path>
                <path d="M526.9253,494.9003 C526.7173,494.8893 526.4773,494.7203 526.5123,493.9523 C526.5233,493.6943 526.5873,493.2993 526.7063,492.5773 C526.8793,491.5053 527.5313,489.8663 527.9163,486.8553 C528.4133,482.9273 527.8493,481.8103 527.3483,479.4903 C527.2213,478.9013 527.0773,478.2313 526.9253,477.4063 C526.1743,473.4333 523.0653,466.7953 523.0333,466.7283 L523.0053,466.6713 L523.0153,466.6083 C523.0893,466.0933 523.6503,465.8883 524.2633,467.1443 C525.8923,470.4723 529.8973,483.5553 529.9573,483.7663 C530.3623,485.1773 534.1313,489.3863 535.9573,491.5933 L536.4263,492.1643 C537.2053,493.1053 537.2973,493.4093 537.1953,493.6133 C537.1703,493.6663 537.0893,493.7863 536.8883,493.7753 C536.5423,493.7613 535.8313,493.3173 535.2953,492.9503 C534.8573,492.6513 534.3673,492.2593 533.9343,491.9143 C533.5603,491.6183 533.2113,491.3363 532.9823,491.1843 C532.9643,491.1733 532.9543,491.1663 532.9433,491.1633 C532.9113,491.2553 532.8873,491.4483 532.8693,491.6113 C532.8373,491.8643 532.7993,492.1753 532.7143,492.4993 C532.5203,493.2223 532.0863,493.5573 531.3883,493.5253 C531.1803,493.5183 530.9413,493.4763 530.6553,493.3983 C529.7703,493.1623 529.2553,492.5873 528.8043,492.0833 C528.7483,492.0233 528.6313,491.8933 528.6283,491.8893 C528.5643,492.0023 528.4873,492.2663 528.4203,492.4853 C528.2863,492.9403 528.1023,493.5603 527.7713,494.1073 C527.4263,494.6743 527.1723,494.9103 526.9253,494.9003" id="Fill-295" fill="#89BD23"></path>
                <path d="M523.4946,465.6367 L524.6406,466.3347 L525.1696,466.6557 L528.9206,468.9157 C528.9206,468.9157 529.7876,469.4687 530.1966,469.3317 C531.1946,468.9897 534.1876,468.0837 538.0476,469.6307 C540.3256,470.5477 543.0896,472.6627 545.3456,474.6157 C547.7856,476.7317 551.1736,480.4187 551.9206,481.8677 C552.0086,482.0407 552.2416,482.5807 551.7866,482.6687 C548.2436,483.3627 541.4786,481.6037 537.9346,479.3547 C534.3916,477.1087 531.7896,474.9227 530.6166,472.4407 C530.1016,471.3547 529.8156,470.7737 529.6606,470.4627 C529.4846,470.1137 528.6136,469.5607 528.6136,469.5607 L527.4576,468.8207 L525.4936,467.6247 L523.9286,466.5817 L523.0506,465.9117 C523.0506,465.9117 522.7966,465.6757 522.9026,465.5027 C523.0046,465.3297 523.4946,465.6367 523.4946,465.6367" id="Fill-297" fill="#89BD23"></path>
                <path d="M551.5142,482.0275 L539.8762,475.4555 L531.1302,470.1285 C531.1302,470.1285 530.9042,469.9665 530.6262,470.1675 C530.3472,470.3685 530.6122,470.5025 530.6122,470.5025 L546.5572,479.4045 L550.9292,481.8655 L551.5112,482.3445 L551.5142,482.0275 Z" id="Fill-299" fill="#FEFEFE"></path>
                <path d="M531.1299,470.1304 L551.2179,481.9934 L548.5209,480.5094 L548.9049,482.3424 L548.1789,480.3014 L544.5939,478.1194 L544.9529,480.0154 L545.1369,481.9264 L544.3649,478.2744 L538.8399,474.9114 L539.0339,479.9874 L538.5859,477.0864 L538.5509,474.7384 L534.4329,472.6374 L534.5959,477.0154 L533.9149,474.5124 L533.8379,472.3024 C533.8379,472.3024 531.1299,470.1304 530.6259,470.1694" id="Fill-301" fill="#FEFEFE"></path>
            </g>
            <polygon id="Fill-304" fill="#FEFEFE" points="581.71 628.5444 579.489 629.2774 578.995 629.4324 579.57 629.7004 584.04 627.8604 584.199 627.6034"></polygon>
            <polygon id="Fill-305" fill="#FEFEFE" points="583.5535 632.2092 583.8395 632.3822 588.2105 631.2042 588.5495 630.9402"></polygon>
            <polygon id="Fill-306" fill="#FEFEFE" points="589.3631 635.4171 589.5961 635.5901 591.8841 635.1241 593.0261 634.6451"></polygon>
            <polygon id="Fill-307" fill="#FEFEFE" points="593.18 637.7742 593.518 637.9832 594.964 637.3452"></polygon>
            <g id="Group-322" transform="translate(0.000000, 84.000000)" fill="#E62D40">
                <path d="M544.1943,611.7179 C544.2723,610.8399 545.0473,610.1879 545.9253,610.2649 C546.8033,610.3429 547.4523,611.1189 547.3783,611.9959 C547.3003,612.8739 546.5253,613.5269 545.6463,613.4489 C544.7693,613.3709 544.1163,612.5959 544.1943,611.7179" id="Fill-308"></path>
                <path d="M752.1223,470.2463 C752.1223,468.9423 753.1803,467.8883 754.4803,467.8883 C755.7853,467.8883 756.8393,468.9423 756.8393,470.2463 C756.8393,471.5513 755.7853,472.6053 754.4803,472.6053 C753.1803,472.6053 752.1223,471.5513 752.1223,470.2463" id="Fill-318"></path>
            </g>
            <polygon id="Fill-323" fill="#E62D40" points="836.4399 625.3678 839.8169 622.8398 840.6739 626.1398 839.7889 627.9058 838.4949 631.8018 836.7569 634.2128 834.1199 632.8908 833.9189 631.9748"></polygon>
            <g id="Group-352" transform="translate(824.000000, 608.471000)">
                <path d="M15.0691,23.2187 C15.1711,23.2787 15.2381,23.4407 14.9851,23.8677 C14.9001,24.0087 14.7411,24.2167 14.4591,24.5897 C14.2191,24.9107 13.4511,26.9097 12.5691,28.0877 C11.9131,28.9657 11.0751,29.0927 10.9691,29.3037 C10.5141,30.2207 10.3801,30.8797 10.0771,31.8177 C9.9601,32.1877 9.8271,32.6037 9.6471,33.1117 C8.7941,35.5577 8.3041,40.1517 8.3001,40.1977 L8.2971,40.2367 L8.2721,40.2717 C8.0741,40.5427 7.7291,40.5077 7.8071,39.6297 C7.9691,37.8427 9.0691,31.9897 9.5801,29.3387 C9.7351,28.5497 9.0191,28.6197 8.9241,26.8677 C8.8471,25.4787 9.7251,24.3957 9.4881,22.6547 L9.4281,22.2067 C9.3261,21.4627 9.3751,21.2657 9.4881,21.1777 C9.5201,21.1567 9.5971,21.1107 9.6961,21.1707 C9.8651,21.2727 10.0881,21.7137 10.2431,22.0657 C10.3701,22.3547 10.4961,22.7077 10.6091,23.0217 C10.7041,23.2887 10.7961,23.5397 10.8631,23.6877 C10.8671,23.6987 10.8741,23.7047 10.8741,23.7127 C10.9201,23.6667 10.9941,23.5647 11.0541,23.4757 C11.1451,23.3417 11.2621,23.1767 11.4061,23.0177 C11.7271,22.6617 12.0511,22.5877 12.3931,22.7917 C12.4951,22.8557 12.6011,22.9437 12.7211,23.0637 C13.0951,23.4337 13.1761,23.8957 13.2501,24.3047 C13.2571,24.3537 13.2781,24.4597 13.2781,24.4637 C13.3421,24.4177 13.4651,24.2867 13.5671,24.1807 C13.7751,23.9587 14.0611,23.6597 14.3961,23.4407 C14.7481,23.2117 14.9491,23.1447 15.0691,23.2187" id="Fill-324" fill="#89BD23"></path>
                <path d="M16.6489,5.9698 C16.6489,5.9698 18.3309,1.9468 22.4979,3.6958 C24.8419,4.6798 24.5989,6.4418 24.5989,6.4418 L17.6149,11.7798 L16.2149,10.9448 L16.6489,5.9698 Z" id="Fill-326" fill="#E62D40"></path>
                <path d="M11.0085,11.0289 C11.0085,11.0289 9.5595,8.7339 7.9345,7.9689 C6.3095,7.2039 4.0635,7.6689 2.3285,9.3579 C0.5975,11.0469 0.2345,13.5709 1.1585,13.8779 C2.0815,14.1839 6.3015,12.6789 6.3015,12.6789 L11.0085,11.0289 Z" id="Fill-328" fill="#E62D40"></path>
                <path d="M11.1831,11.5355 C11.1831,11.5355 4.7951,5.0305 6.9351,1.8085 C7.8271,0.4685 10.2001,-0.7935 12.8511,1.0255 C15.5061,2.8455 16.6201,5.0625 16.9721,6.6285 C17.3211,8.1935 17.0851,11.0985 17.0851,11.0985 C17.0851,11.0985 17.5501,9.5475 19.7781,8.1515 C26.5231,3.9235 30.7041,8.5105 30.6901,9.4025 C30.6791,10.2945 29.5051,12.6495 27.8871,13.6045 C24.0651,15.8615 19.0061,16.2455 19.0061,16.2455 L12.8511,14.9025 L11.1831,11.5355 Z" id="Fill-330" fill="#E62D40"></path>
                <path d="M15.5669,17.2998 C15.5669,17.2998 17.2209,19.6578 17.3329,22.4858 C17.3859,23.8288 17.5449,25.2428 18.1129,25.3948 C18.6799,25.5458 23.0339,24.2658 23.3019,20.7758 C23.4389,18.9958 21.2679,17.0318 20.8269,16.7288 C20.6509,16.6088 20.2209,16.3338 19.7839,16.1578 C19.1069,15.8898 18.3839,15.7308 18.3839,15.7308 L15.5669,17.2998 Z" id="Fill-332" fill="#E62D40"></path>
                <path d="M13.9714,14.7832 L15.6914,9.6392 C15.6914,9.6392 15.0074,8.8852 15.9594,8.1732 C16.1714,8.0172 16.4144,7.9362 16.6964,8.1662 C17.4824,8.9982 16.2314,9.7452 16.2314,9.7452 L14.4644,15.0122 L13.9714,14.7832 Z" id="Fill-334" fill="#FEFEFE"></path>
                <path d="M14.8328,15.0269 L18.4178,10.1509 L18.6368,9.4139 C18.6368,9.4139 19.0418,7.9859 19.9728,8.8639 C20.3258,9.3019 19.6658,9.7489 19.6658,9.7489 L18.9368,10.3769 L15.2628,15.3689 L14.8328,15.0269 Z" id="Fill-336" fill="#FEFEFE"></path>
                <path d="M14.9661,15.1323 L17.1241,10.0973 L17.1661,9.4033 C17.1661,9.4033 17.3841,7.9963 18.2311,8.6453 C18.5661,8.9733 18.1431,9.4883 18.1431,9.4883 L17.6281,10.1893 L15.4141,15.3473 L14.9661,15.1323 Z" id="Fill-338" fill="#FEFEFE"></path>
                <path d="M11.0085,11.0289 C11.0085,11.0289 12.4645,13.5739 13.2715,14.2549 C14.0825,14.9349 18.6795,15.7359 18.6795,15.7359 C18.6795,15.7359 19.9595,16.0919 19.5715,16.5499 C19.1875,17.0079 16.2795,17.6389 16.2795,17.6389 C16.2795,17.6389 11.7945,19.5149 10.5255,19.7229 C9.2595,19.9269 7.6235,20.9359 7.3835,21.1679 C7.0105,21.5349 5.4805,18.4849 5.3425,17.2589 C5.2165,16.1229 5.2125,14.8189 5.5435,13.8599 C6.2385,11.8609 9.2455,9.2199 11.0085,11.0289" id="Fill-340" fill="#E62D40"></path>
                <path d="M17.0945,10.3322 C17.1225,10.2932 19.9465,6.4752 24.6035,6.1302 L24.6215,6.3062 L24.6005,6.4432 C23.6415,6.5142 22.7675,6.6872 21.9735,6.9862 C19.0055,8.1152 17.2955,10.4382 17.2745,10.4662 L17.0945,10.3322 Z" id="Fill-342" fill="#FEFEFE"></path>
                <path d="M16.9687,10.5481 C17.5897,8.4751 16.4437,5.0971 16.4967,5.2881 L16.7357,5.8201 L16.8627,5.5591 C16.8977,5.6651 17.7727,8.4361 17.1347,10.5801 L16.9687,10.5481 Z" id="Fill-344" fill="#FEFEFE"></path>
                <path d="M11.4468,19.513 L11.2528,20.014 C12.4198,19.922 14.7108,19.139 16.2558,18.505" id="Fill-346" fill="#FEFEFE"></path>
                <path d="M19.6555,16.1472 C19.5285,16.0872 19.3805,16.0382 19.2785,16.0022 C18.5025,15.6532 13.8705,14.5322 13.3375,14.1622 C13.3275,14.1552 13.3165,14.1482 13.3055,14.1382 C13.1505,14.0112 13.0065,13.7282 12.8225,13.3792 C12.4145,12.5972 11.7975,11.4052 10.3235,10.4072 C9.8125,10.0582 9.2695,9.9492 8.7085,10.0832 C7.1825,10.4502 6.1565,12.6502 6.1565,12.6502 C6.1665,12.6322 7.3335,10.6442 8.7615,10.3022 C9.2585,10.1822 9.7415,10.2812 10.2005,10.5912 C11.6245,11.5672 12.2235,13.8272 12.8585,14.3602 C14.1915,15.4772 17.3425,15.6362 17.7695,15.7172 C17.9245,15.7452 19.1905,15.9992 19.6555,16.1472" id="Fill-348" fill="#FEFEFE"></path>
                <path d="M10.8516,23.9661 L10.3366,22.2911 L10.9006,23.4621 C11.1126,23.1481 12.4066,20.8851 13.3616,24.2301 L14.4966,23.3281 L13.1886,24.6991 L13.1646,24.4741 C13.0546,23.4121 12.0186,22.0131 10.9716,23.7691 L10.8516,23.9661 Z" id="Fill-350" fill="#FEFEFE"></path>
            </g>
            <polygon id="Fill-353" fill="#E62D40" points="810.6975 374.3899 812.0795 371.1679 814.0675 373.1839 814.1635 374.8239 814.8505 378.1659 814.6035 380.6269 812.1535 380.7709 811.6285 380.1929"></polygon>
            <g id="Group-382" transform="translate(800.000000, 360.471000)">
                <path d="M15.2185,17.3778 C15.3175,17.3778 15.4335,17.4658 15.4265,17.8788 C15.4225,18.0158 15.3985,18.2308 15.3525,18.6188 C15.3105,18.9498 15.5885,20.7098 15.4405,21.9218 C15.3345,22.8248 14.7845,23.2658 14.7955,23.4628 C14.8485,24.3128 15.0275,24.8448 15.2005,25.6448 C15.2675,25.9588 15.3455,26.3148 15.4265,26.7518 C15.8285,28.8708 17.3865,32.3828 17.4045,32.4178 L17.4145,32.4458 L17.4115,32.4808 C17.3835,32.7558 17.1185,32.8758 16.8125,32.2128 C16.1875,30.8558 14.5445,26.1878 13.8115,24.0658 C13.5935,23.4308 13.1105,23.7798 12.3095,22.5608 C11.6785,21.5908 11.8625,20.4448 10.9665,19.2918 L10.7375,18.9928 C10.3535,18.4988 10.3075,18.3408 10.3535,18.2278 C10.3635,18.1998 10.4025,18.1358 10.4975,18.1358 C10.6635,18.1398 11.0055,18.3648 11.2665,18.5558 C11.4745,18.7068 11.7135,18.9118 11.9255,19.0878 C12.1055,19.2428 12.2745,19.3878 12.3835,19.4648 C12.3945,19.4688 12.3975,19.4718 12.4055,19.4758 C12.4185,19.4258 12.4265,19.3208 12.4335,19.2318 C12.4435,19.0978 12.4585,18.9288 12.4965,18.7568 C12.5815,18.3648 12.7825,18.1778 13.1135,18.1848 C13.2125,18.1848 13.3285,18.2028 13.4625,18.2418 C13.8855,18.3548 14.1395,18.6538 14.3585,18.9188 C14.3865,18.9498 14.4425,19.0168 14.4425,19.0168 C14.4745,18.9578 14.5065,18.8128 14.5345,18.6968 C14.5945,18.4498 14.6755,18.1148 14.8265,17.8148 C14.9825,17.5088 15.1025,17.3748 15.2185,17.3778" id="Fill-354" fill="#89BD23"></path>
                <path d="M9.1858,4.3021 C9.1858,4.3021 8.7238,0.7061 12.4508,0.2341 C14.5478,-0.0309 15.1048,1.3371 15.1048,1.3371 L12.2988,8.0851 L10.9418,8.0641 L9.1858,4.3021 Z" id="Fill-356" fill="#E62D40"></path>
                <path d="M7.2278,10.2891 C7.2278,10.2891 5.2288,9.2381 3.7408,9.3651 C2.2528,9.4891 0.8288,10.7581 0.2858,12.6931 C-0.2602,14.6291 0.5298,16.6001 1.3188,16.4341 C2.1128,16.2721 4.5268,13.4341 4.5268,13.4341 L7.2278,10.2891 Z" id="Fill-358" fill="#E62D40"></path>
                <path d="M7.5645,10.5814 C7.5645,10.5814 0.2595,8.5544 0.4645,5.3424 C0.5455,4.0094 1.7295,2.1164 4.3985,2.3214 C7.0645,2.5254 8.7875,3.6604 9.6905,4.6414 C10.5965,5.6214 11.6335,7.8144 11.6335,7.8144 C11.6335,7.8144 11.3195,6.5024 12.3455,4.5704 C15.4435,-1.2746 20.3625,0.2904 20.7215,0.9354 C21.0845,1.5844 21.2185,3.7664 20.4505,5.1274 C18.6385,8.3424 15.1555,10.7194 15.1555,10.7194 L10.1665,12.3124 L7.5645,10.5814 Z" id="Fill-360" fill="#E62D40"></path>
                <path d="M13.1169,12.9092 C13.1169,12.9092 15.2849,13.9212 16.5439,15.9092 C17.1389,16.8542 17.8449,17.8062 18.3139,17.6792 C18.7859,17.5522 21.3879,14.8202 20.1289,12.1972 C19.4879,10.8572 17.1109,10.3462 16.6669,10.3112 C16.4909,10.3002 16.0679,10.2792 15.6799,10.3352 C15.0769,10.4242 14.4919,10.6102 14.4919,10.6102 L13.1169,12.9092 Z" id="Fill-362" fill="#E62D40"></path>
                <path d="M10.9216,11.7606 L10.0226,7.3436 C10.0226,7.3436 9.2146,7.0826 9.6066,6.1766 C9.6916,5.9756 9.8356,5.8166 10.1316,5.8626 C11.0446,6.1336 10.4556,7.1946 10.4556,7.1946 L11.3726,11.7186 L10.9216,11.7606 Z" id="Fill-364" fill="#FEFEFE"></path>
                <path d="M11.6436,11.5781 L12.1966,6.5751 L12.0496,5.9551 C12.0496,5.9551 11.7496,4.7561 12.7826,5.0031 C13.2196,5.1721 12.9306,5.7681 12.9306,5.7681 L12.6656,6.5261 L12.0946,11.6451 L11.6436,11.5781 Z" id="Fill-366" fill="#FEFEFE"></path>
                <path d="M11.7832,11.5981 L11.2442,7.0751 L10.9832,6.5601 C10.9832,6.5601 10.5562,5.4571 11.4342,5.5691 C11.8152,5.6651 11.7232,6.2151 11.7232,6.2151 L11.6452,6.9341 L12.1952,11.5661 L11.7832,11.5981 Z" id="Fill-368" fill="#FEFEFE"></path>
                <path d="M7.2278,10.2891 C7.2278,10.2891 9.3328,11.5161 10.1998,11.6711 C11.0638,11.8231 14.7088,10.4861 14.7088,10.4861 C14.7088,10.4861 15.7738,10.2151 15.6888,10.7051 C15.6008,11.1951 13.7678,12.8561 13.7678,12.8561 C13.7678,12.8561 11.3208,16.0741 10.4958,16.7481 C9.6678,17.4251 8.9098,18.8311 8.8358,19.0961 C8.7158,19.5151 6.3468,17.9531 5.7398,17.1281 C5.1758,16.3671 4.6298,15.4291 4.4708,14.5971 C4.1398,12.8701 5.2078,9.7211 7.2278,10.2891" id="Fill-370" fill="#E62D40"></path>
                <path d="M11.3201,7.2579 C11.3241,7.2189 11.7711,3.2949 14.9791,1.1099 L15.0641,1.2329 L15.1071,1.3389 C14.4471,1.7859 13.8871,2.2759 13.4431,2.8189 C11.7751,4.8679 11.5111,7.2509 11.5071,7.2789 L11.3201,7.2579 Z" id="Fill-372" fill="#FEFEFE"></path>
                <path d="M11.3191,7.4655 C10.9031,5.7135 8.6751,3.7605 8.7911,3.8735 L9.1861,4.1585 L9.1681,3.9185 C9.2391,3.9785 11.0231,5.6115 11.4491,7.4195 L11.3191,7.4655 Z" id="Fill-374" fill="#FEFEFE"></path>
                <path d="M11.0698,16.2155 L11.1368,16.6565 C11.9408,16.1065 13.2628,14.5865 14.1128,13.4935" id="Fill-376" fill="#FEFEFE"></path>
                <path d="M15.5815,10.3796 C15.4655,10.3906 15.3385,10.4146 15.2505,10.4326 C14.5445,10.5036 10.7445,11.6246 10.2085,11.5786 C10.1945,11.5746 10.1835,11.5746 10.1735,11.5746 C10.0115,11.5436 9.7895,11.4016 9.5145,11.2296 C8.8935,10.8306 7.9525,10.2316 6.4755,10.1256 C5.9635,10.0866 5.5265,10.2356 5.1815,10.5626 C4.2325,11.4616 4.4085,13.4756 4.4085,13.4756 C4.4085,13.4536 4.4235,11.5396 5.3085,10.7006 C5.6185,10.4076 6.0065,10.2776 6.4645,10.3126 C7.8955,10.4186 9.2675,11.7966 9.9445,11.9166 C11.3685,12.1706 13.7025,10.9756 14.0445,10.8526 C14.1675,10.8096 15.1825,10.4676 15.5815,10.3796" id="Fill-378" fill="#FEFEFE"></path>
                <path d="M12.4927,19.6687 L11.4247,18.6777 L12.3197,19.2847 C12.3407,18.9737 12.3307,16.8057 14.4097,18.8187 L14.8507,17.6947 L14.4807,19.2247 L14.3677,19.0727 C13.8497,18.3537 12.5207,17.7757 12.4957,19.4787 L12.4927,19.6687 Z" id="Fill-380" fill="#FEFEFE"></path>
            </g>
            <polygon id="Fill-383" fill="#E62D40" points="505.0338 591.8902 508.1078 590.2012 508.4288 593.0152 507.4978 594.3652 505.9818 597.4252 504.2728 599.2092 502.2528 597.8162 502.1958 597.0372"></polygon>
            <g id="Group-412" transform="translate(495.000000, 577.471000)">
                <path d="M11.4674,19.9279 C11.5454,19.9919 11.5804,20.1319 11.3224,20.4499 C11.2344,20.5589 11.0834,20.7109 10.8084,20.9889 C10.5714,21.2249 9.7084,22.7799 8.8444,23.6469 C8.2024,24.2929 7.5014,24.3029 7.3884,24.4649 C6.9054,25.1669 6.7224,25.6919 6.3624,26.4289 C6.2254,26.7179 6.0664,27.0459 5.8584,27.4439 C4.8714,29.3619 3.9404,33.0849 3.9294,33.1239 L3.9224,33.1559 L3.8984,33.1799 C3.7044,33.3809 3.4224,33.3109 3.5914,32.5989 C3.9294,31.1459 5.5124,26.4569 6.2424,24.3309 C6.4574,23.6969 5.8624,23.6759 5.9854,22.2199 C6.0844,21.0699 6.9334,20.2769 6.9374,18.8169 L6.9404,18.4399 C6.9444,17.8199 7.0044,17.6609 7.1094,17.6049 C7.1344,17.5869 7.2054,17.5589 7.2794,17.6189 C7.4094,17.7239 7.5404,18.1119 7.6284,18.4229 C7.6984,18.6729 7.7624,18.9799 7.8184,19.2479 C7.8644,19.4799 7.9104,19.6989 7.9524,19.8289 C7.9524,19.8359 7.9564,19.8429 7.9594,19.8469 C7.9984,19.8189 8.0724,19.7409 8.1324,19.6739 C8.2244,19.5749 8.3364,19.4519 8.4744,19.3389 C8.7814,19.0819 9.0564,19.0609 9.3134,19.2689 C9.3904,19.3319 9.4684,19.4169 9.5534,19.5299 C9.8174,19.8789 9.8314,20.2659 9.8424,20.6119 C9.8454,20.6539 9.8494,20.7419 9.8494,20.7459 C9.9094,20.7139 10.0214,20.6229 10.1174,20.5449 C10.3144,20.3899 10.5864,20.1749 10.8894,20.0299 C11.2034,19.8859 11.3754,19.8539 11.4674,19.9279" id="Fill-384" fill="#89BD23"></path>
                <path d="M14.7638,5.9101 C14.7638,5.9101 16.6148,2.7931 19.8408,4.7151 C21.6558,5.7971 21.2538,7.2181 21.2538,7.2181 L14.8868,10.8071 L13.8298,9.9571 L14.7638,5.9101 Z" id="Fill-386" fill="#E62D40"></path>
                <path d="M9.5345,9.4225 C9.5345,9.4225 8.6075,7.3635 7.3565,6.5495 C6.1075,5.7315 4.2045,5.8545 2.5825,7.0425 C0.9645,8.2305 0.3715,10.2685 1.0945,10.6285 C1.8205,10.9875 5.4695,10.2365 5.4695,10.2365 L9.5345,9.4225 Z" id="Fill-388" fill="#E62D40"></path>
                <path d="M9.62,9.8601 C9.62,9.8601 5.111,3.7641 7.247,1.3601 C8.136,0.3591 10.237,-0.4029 12.211,1.4021 C14.186,3.2041 14.845,5.1601 14.954,6.4901 C15.06,7.8191 14.531,10.1841 14.531,10.1841 C14.531,10.1841 15.092,8.9571 17.087,8.0661 C23.13,5.3691 26.038,9.6271 25.926,10.3611 C25.816,11.0941 24.575,12.8951 23.133,13.4981 C19.724,14.9121 15.515,14.6411 15.515,14.6411 L10.604,12.8251 L9.62,9.8601 Z" id="Fill-390" fill="#E62D40"></path>
                <path d="M12.5621,15.1127 C12.5621,15.1127 13.6481,17.2457 13.4151,19.5867 C13.3021,20.7007 13.2741,21.8817 13.7221,22.0717 C14.1691,22.2627 17.9031,21.7127 18.5271,18.8677 C18.8441,17.4187 17.2861,15.5537 16.9581,15.2497 C16.8281,15.1337 16.5071,14.8557 16.1651,14.6617 C15.6401,14.3617 15.0621,14.1467 15.0621,14.1467 L12.5621,15.1127 Z" id="Fill-392" fill="#E62D40"></path>
                <path d="M11.5397,12.856 L13.5497,8.819 C13.5497,8.819 13.0727,8.118 13.9407,7.645 C14.1347,7.54 14.3427,7.504 14.5507,7.723 C15.1007,8.498 13.9827,8.971 13.9827,8.971 L11.9207,13.103 L11.5397,12.856 Z" id="Fill-394" fill="#FEFEFE"></path>
                <path d="M12.2208,13.1564 L15.7358,9.5564 L15.9998,8.9754 C15.9998,8.9754 16.5008,7.8474 17.1668,8.6794 C17.4068,9.0774 16.8108,9.3704 16.8108,9.3704 L16.1378,9.8034 L12.5348,13.4874 L12.2208,13.1564 Z" id="Fill-396" fill="#FEFEFE"></path>
                <path d="M12.3185,13.2586 L14.6775,9.3626 L14.7895,8.7956 C14.7895,8.7956 15.1355,7.6636 15.7565,8.2946 C15.9955,8.6046 15.5865,8.9786 15.5865,8.9786 L15.0825,9.4966 L12.6635,13.4876 L12.3185,13.2586 Z" id="Fill-398" fill="#FEFEFE"></path>
                <path d="M9.5343,9.4225 C9.5343,9.4225 10.4373,11.6855 11.0253,12.3415 C11.6143,12.9935 15.3053,14.1855 15.3053,14.1855 C15.3053,14.1855 16.3173,14.6265 15.9473,14.9575 C15.5773,15.2925 13.1093,15.4725 13.1093,15.4725 C13.1093,15.4725 9.1993,16.4985 8.1313,16.5225 C7.0663,16.5475 5.5993,17.1895 5.3783,17.3515 C5.0253,17.6085 4.1223,14.9225 4.1513,13.8965 C4.1753,12.9485 4.3233,11.8725 4.7083,11.1215 C5.5123,9.5565 8.2933,7.7305 9.5343,9.4225" id="Fill-400" fill="#E62D40"></path>
                <path d="M14.6259,9.5533 C14.6539,9.5253 17.4219,6.7083 21.2959,6.9623 L21.2889,7.1103 L21.2539,7.2193 C20.4569,7.1663 19.7169,7.2093 19.0329,7.3643 C16.4559,7.9493 14.7809,9.6623 14.7599,9.6833 L14.6259,9.5533 Z" id="Fill-402" fill="#FEFEFE"></path>
                <path d="M14.4972,9.7166 C15.2482,8.0806 14.6982,5.1686 14.7162,5.3306 L14.8502,5.7966 L14.9872,5.5956 C15.0052,5.6866 15.4032,8.0736 14.6282,9.7626 L14.4972,9.7166 Z" id="Fill-404" fill="#FEFEFE"></path>
                <path d="M8.9135,16.458 L8.6945,16.846 C9.6675,16.909 11.6455,16.529 12.9895,16.187" id="Fill-406" fill="#FEFEFE"></path>
                <path d="M16.0614,14.6368 C15.9624,14.5738 15.8504,14.5138 15.7694,14.4748 C15.1694,14.0978 11.4854,12.6378 11.0904,12.2708 C11.0804,12.2638 11.0724,12.2568 11.0654,12.2498 C10.9564,12.1268 10.8684,11.8768 10.7594,11.5698 C10.5124,10.8748 10.1384,9.8248 9.0424,8.8298 C8.6654,8.4848 8.2274,8.3328 7.7514,8.3788 C6.4544,8.5028 5.3514,10.1978 5.3514,10.1978 C5.3614,10.1808 6.5534,8.6818 7.7694,8.5658 C8.1924,8.5238 8.5764,8.6608 8.9184,8.9718 C9.9804,9.9368 10.2124,11.8658 10.6744,12.3808 C11.6404,13.4558 14.2144,13.9498 14.5594,14.0658 C14.6834,14.1048 15.6954,14.4608 16.0614,14.6368" id="Fill-408" fill="#FEFEFE"></path>
                <path d="M7.9088,20.0551 L7.6798,18.6171 L8.0078,19.6461 C8.2188,19.4131 9.5448,17.7001 9.9428,20.5631 L10.9828,19.9531 L9.7488,20.9291 L9.7558,20.7421 C9.7878,19.8541 9.0968,18.5811 8.0318,19.9071 L7.9088,20.0551 Z" id="Fill-410" fill="#FEFEFE"></path>
            </g>
        </g>
    </g>
</svg>